<svg width="25" height="25" viewBox="0 0 25 25" fill="none" xmlns="http://www.w3.org/2000/svg">
<path fill-rule="evenodd" clip-rule="evenodd" d="M12.5 21.875C17.6777 21.875 21.875 17.6777 21.875 12.5C21.875 7.32233 17.6777 3.125 12.5 3.125C7.32233 3.125 3.125 7.32233 3.125 12.5C3.125 17.6777 7.32233 21.875 12.5 21.875ZM17.4349 10.0152C17.7885 9.59091 17.7311 8.96034 17.3069 8.60678C16.8826 8.25321 16.252 8.31054 15.8984 8.73482L12.0922 13.3024C11.7454 13.7184 11.5505 13.9488 11.3949 14.0903L11.389 14.0957L11.3826 14.0909C11.2148 13.964 10.9998 13.7522 10.6168 13.3693L9.04044 11.7929C8.64992 11.4024 8.01675 11.4024 7.62623 11.7929C7.2357 12.1834 7.2357 12.8166 7.62623 13.2071L9.20262 14.7835L9.24344 14.8243L9.24345 14.8243C9.56994 15.151 9.88403 15.4652 10.1763 15.6861C10.5036 15.9337 10.9324 16.1665 11.4818 16.1415C12.0312 16.1166 12.4371 15.846 12.7407 15.5698C13.0117 15.3233 13.2961 14.9819 13.5916 14.6271L13.6286 14.5827L17.4349 10.0152Z" fill="#949494"/>
</svg>
