<svg width="48" height="68" viewBox="0 0 48 68" fill="none" xmlns="http://www.w3.org/2000/svg">
<rect width="48" height="48" rx="7" fill="#FFFAFB"/>
<path d="M31.5208 23.5C30.9407 23.5 30.3843 23.2695 29.974 22.8593C29.5638 22.4491 29.3333 21.8927 29.3333 21.3125C29.3333 20.7323 29.5638 20.1759 29.974 19.7657C30.3843 19.3555 30.9407 19.125 31.5208 19.125C32.101 19.125 32.6574 19.3555 33.0676 19.7657C33.4779 20.1759 33.7083 20.7323 33.7083 21.3125C33.7083 21.8927 33.4779 22.4491 33.0676 22.8593C32.6574 23.2695 32.101 23.5 31.5208 23.5ZM27.1458 17.6667C26.5657 17.6667 26.0093 17.4362 25.599 17.026C25.1888 16.6157 24.9583 16.0593 24.9583 15.4792C24.9583 14.899 25.1888 14.3426 25.599 13.9324C26.0093 13.5221 26.5657 13.2917 27.1458 13.2917C27.726 13.2917 28.2824 13.5221 28.6926 13.9324C29.1029 14.3426 29.3333 14.899 29.3333 15.4792C29.3333 16.0593 29.1029 16.6157 28.6926 17.026C28.2824 17.4362 27.726 17.6667 27.1458 17.6667ZM19.8542 17.6667C19.274 17.6667 18.7176 17.4362 18.3074 17.026C17.8971 16.6157 17.6667 16.0593 17.6667 15.4792C17.6667 14.899 17.8971 14.3426 18.3074 13.9324C18.7176 13.5221 19.274 13.2917 19.8542 13.2917C20.4343 13.2917 20.9907 13.5221 21.401 13.9324C21.8112 14.3426 22.0417 14.899 22.0417 15.4792C22.0417 16.0593 21.8112 16.6157 21.401 17.026C20.9907 17.4362 20.4343 17.6667 19.8542 17.6667ZM15.4792 23.5C14.899 23.5 14.3426 23.2695 13.9324 22.8593C13.5221 22.4491 13.2917 21.8927 13.2917 21.3125C13.2917 20.7323 13.5221 20.1759 13.9324 19.7657C14.3426 19.3555 14.899 19.125 15.4792 19.125C16.0593 19.125 16.6157 19.3555 17.026 19.7657C17.4362 20.1759 17.6667 20.7323 17.6667 21.3125C17.6667 21.8927 17.4362 22.4491 17.026 22.8593C16.6157 23.2695 16.0593 23.5 15.4792 23.5ZM23.5 10.375C20.019 10.375 16.6806 11.7578 14.2192 14.2192C11.7578 16.6806 10.375 20.019 10.375 23.5C10.375 26.981 11.7578 30.3194 14.2192 32.7808C16.6806 35.2422 20.019 36.625 23.5 36.625C24.0802 36.625 24.6366 36.3945 25.0468 35.9843C25.457 35.5741 25.6875 35.0177 25.6875 34.4375C25.6875 33.8688 25.4688 33.3583 25.1187 32.9792C24.7833 32.5854 24.5646 32.075 24.5646 31.5208C24.5646 30.9407 24.7951 30.3843 25.2053 29.974C25.6155 29.5638 26.1719 29.3333 26.7521 29.3333H29.3333C31.2672 29.3333 33.1219 28.5651 34.4893 27.1977C35.8568 25.8302 36.625 23.9755 36.625 22.0417C36.625 15.5958 30.7479 10.375 23.5 10.375Z" fill="#F15F79"/>
<path d="M21.194 62.657C21.788 62.987 22.085 63.438 22.085 64.01C22.085 64.582 21.788 65.033 21.194 65.363C20.6 65.693 19.764 65.858 18.686 65.858C17.608 65.858 16.7683 65.6893 16.167 65.352C15.5657 65.022 15.265 64.5747 15.265 64.01C15.265 63.438 15.5657 62.987 16.167 62.657C16.7683 62.3197 17.608 62.151 18.686 62.151C19.764 62.151 20.6 62.3197 21.194 62.657ZM23.185 61.304H14.33V60.413H17.773V58.664H18.906V60.413H23.185V61.304ZM22.041 56.453C22.0777 57.7363 21.9787 58.884 21.744 59.896L20.655 59.742C20.8457 58.9793 20.93 58.1837 20.908 57.355H15.375V56.453H22.041ZM18.686 63.064C17.982 63.064 17.4283 63.1483 17.025 63.317C16.629 63.4783 16.431 63.7093 16.431 64.01C16.431 64.318 16.629 64.5527 17.025 64.714C17.4283 64.8753 17.982 64.956 18.686 64.956C19.39 64.956 19.94 64.8753 20.336 64.714C20.732 64.5527 20.93 64.318 20.93 64.01C20.93 63.7093 20.7283 63.4783 20.325 63.317C19.929 63.1483 19.3827 63.064 18.686 63.064ZM29.1166 62.25H27.8956C27.5289 63.262 26.9202 63.768 26.0696 63.768C25.6002 63.768 25.2006 63.6067 24.8706 63.284C24.5479 62.9613 24.3132 62.5507 24.1666 62.052C24.0272 61.546 23.9576 60.9703 23.9576 60.325C23.9576 59.335 24.1336 58.5173 24.4856 57.872C24.8449 57.2267 25.3729 56.904 26.0696 56.904C26.8909 56.904 27.4849 57.3697 27.8516 58.301H29.1166V56.255H30.1836V65.407H29.1166V62.25ZM32.1086 65.869H31.0306V56.068H32.1086V65.869ZM26.8506 62.118C27.0266 61.6707 27.1146 61.0767 27.1146 60.336C27.1146 59.5953 27.0266 59.0013 26.8506 58.554C26.6746 58.0993 26.4179 57.872 26.0806 57.872C25.7432 57.872 25.4866 58.0993 25.3106 58.554C25.1346 59.0013 25.0466 59.5953 25.0466 60.336C25.0466 61.0693 25.1346 61.6597 25.3106 62.107C25.4866 62.5543 25.7432 62.778 26.0806 62.778C26.4179 62.778 26.6746 62.558 26.8506 62.118ZM28.1816 60.336C28.1816 60.6513 28.1559 60.996 28.1046 61.37H29.1166V59.192H28.0826C28.1486 59.5587 28.1816 59.94 28.1816 60.336Z" fill="#454545"/>
</svg>
