<svg width="48" height="68" viewBox="0 0 48 68" fill="none" xmlns="http://www.w3.org/2000/svg">
<rect width="48" height="48" rx="7" fill="#FFFAFB"/>
<path d="M12.094 61.711H9.32202V63.724H13.205V64.626H4.35002V63.724H8.20002V61.711H5.46102V56.772H6.58302V58.345H10.972V56.761H12.094V61.711ZM10.972 60.809V59.236H6.58302V60.809H10.972ZM22.1176 63.35H21.0396V59.885H19.9946V63.053H18.9386V56.244H19.9946V58.939H21.0396V56.068H22.1176V63.35ZM22.3706 65.594H15.6386V62.448H16.7606V64.692H22.3706V65.594ZM18.2786 60.138L18.4436 61.051C17.6516 61.2563 16.6029 61.3663 15.2976 61.381H14.3186V56.937H15.4406V60.424C16.6506 60.424 17.5966 60.3287 18.2786 60.138ZM33.2158 59.28H31.4338V58.345H33.2158V56.068H34.3488V63.174H33.2158V59.28ZM34.5578 65.583H27.9468V62.536H29.0798V64.681H34.5578V65.583ZM32.0718 60.853L31.4228 61.744C30.9975 61.568 30.5648 61.2747 30.1248 60.864C29.6922 60.4533 29.3695 60.017 29.1568 59.555C29.0102 60.061 28.7095 60.5487 28.2548 61.018C27.8075 61.48 27.3382 61.81 26.8468 62.008L26.1538 61.117C26.8578 60.8457 27.4372 60.4057 27.8918 59.797C28.3465 59.181 28.5738 58.499 28.5738 57.751V56.618H29.7288V57.696C29.7288 58.4293 29.9635 59.0857 30.4328 59.665C30.9095 60.2443 31.4558 60.6403 32.0718 60.853ZM43.8444 65.803H36.9254V63.35H42.3484V62.712H36.8814V61.799H39.6424V60.985H35.7924V60.072H44.6474V60.985H40.7644V61.799H43.4704V64.197H38.0584V64.901H43.8444V65.803ZM43.4704 59.379H36.9694V56.332H43.4704V59.379ZM42.3374 58.477V57.245H38.1024V58.477H42.3374Z" fill="#454545"/>
<path d="M18.25 11.5H14.3125C13.0361 11.5 11.8121 12.007 10.9095 12.9095C10.007 13.8121 9.5 15.0361 9.5 16.3125V20.25H13.469C13.0838 19.5828 12.9296 18.8071 13.0302 18.0432C13.1308 17.2794 13.4806 16.5701 14.0253 16.0253C14.5701 15.4806 15.2794 15.1308 16.0432 15.0302C16.8071 14.9296 17.5828 15.0838 18.25 15.469V11.5ZM9.5 22V27.6875C9.5 28.9639 10.007 30.1879 10.9095 31.0905C11.8121 31.993 13.0361 32.5 14.3125 32.5H18.25V23.2372L15.3695 26.1195C15.2052 26.2838 14.9824 26.3761 14.75 26.3761C14.5176 26.3761 14.2948 26.2838 14.1305 26.1195C13.9662 25.9552 13.8739 25.7324 13.8739 25.5C13.8739 25.2676 13.9662 25.0448 14.1305 24.8805L17.0128 22H9.5ZM20 32.5H21.7885C21.9474 30.7561 22.5791 29.0885 23.6155 27.677C24.6519 26.2654 26.0537 25.1634 27.67 24.4895C29.2864 23.8157 31.0559 23.5955 32.7881 23.8528C34.5202 24.1102 36.1494 24.8352 37.5 25.9497V22H21.2372L24.1195 24.8805C24.2838 25.0448 24.3761 25.2676 24.3761 25.5C24.3761 25.7324 24.2838 25.9552 24.1195 26.1195C23.9552 26.2838 23.7324 26.3761 23.5 26.3761C23.2676 26.3761 23.0448 26.2838 22.8805 26.1195L20 23.2372V32.5ZM37.5 20.25H24.781C25.1662 19.5828 25.3204 18.8071 25.2198 18.0432C25.1192 17.2794 24.7694 16.5701 24.2247 16.0253C23.6799 15.4806 22.9706 15.1308 22.2068 15.0302C21.4429 14.9296 20.6672 15.0838 20 15.469V11.5H32.6875C33.9639 11.5 35.1879 12.007 36.0905 12.9095C36.993 13.8121 37.5 15.0361 37.5 16.3125V20.25ZM20 20.25V18.5C20 18.1539 20.1026 17.8155 20.2949 17.5278C20.4872 17.24 20.7605 17.0157 21.0803 16.8832C21.4001 16.7508 21.7519 16.7161 22.0914 16.7836C22.4309 16.8511 22.7427 17.0178 22.9874 17.2626C23.2322 17.5073 23.3989 17.8191 23.4664 18.1586C23.5339 18.4981 23.4992 18.8499 23.3668 19.1697C23.2343 19.4895 23.01 19.7628 22.7222 19.9551C22.4345 20.1474 22.0961 20.25 21.75 20.25H20ZM18.25 20.25H16.5C16.1539 20.25 15.8155 20.1474 15.5278 19.9551C15.24 19.7628 15.0157 19.4895 14.8832 19.1697C14.7508 18.8499 14.7161 18.4981 14.7836 18.1586C14.8511 17.8191 15.0178 17.5073 15.2626 17.2626C15.5073 17.0178 15.8191 16.8511 16.1586 16.7836C16.4981 16.7161 16.8499 16.7508 17.1697 16.8832C17.4895 17.0157 17.7628 17.24 17.9551 17.5278C18.1474 17.8155 18.25 18.1539 18.25 18.5V20.25ZM39.25 33.375C39.25 35.4636 38.4203 37.4666 36.9435 38.9435C35.4666 40.4203 33.4636 41.25 31.375 41.25C29.2864 41.25 27.2834 40.4203 25.8065 38.9435C24.3297 37.4666 23.5 35.4636 23.5 33.375C23.5 31.2864 24.3297 29.2834 25.8065 27.8065C27.2834 26.3297 29.2864 25.5 31.375 25.5C33.4636 25.5 35.4666 26.3297 36.9435 27.8065C38.4203 29.2834 39.25 31.2864 39.25 33.375ZM35.4928 33.9945L35.498 33.9893C35.6583 33.827 35.7488 33.6084 35.75 33.3803V33.3697C35.7486 33.14 35.6568 32.9199 35.4945 32.7572L31.9945 29.2572C31.8304 29.0929 31.6078 29.0006 31.3756 29.0004C31.1434 29.0002 30.9207 29.0923 30.7564 29.2564C30.5921 29.4204 30.4997 29.6431 30.4995 29.8753C30.4993 30.1075 30.5914 30.3302 30.7555 30.4945L32.7628 32.5H27.875C27.6429 32.5 27.4204 32.5922 27.2563 32.7563C27.0922 32.9204 27 33.1429 27 33.375C27 33.6071 27.0922 33.8296 27.2563 33.9937C27.4204 34.1578 27.6429 34.25 27.875 34.25H32.7628L30.7555 36.2555C30.5912 36.4198 30.4989 36.6426 30.4989 36.875C30.4989 37.1074 30.5912 37.3302 30.7555 37.4945C30.9198 37.6588 31.1426 37.7511 31.375 37.7511C31.6074 37.7511 31.8302 37.6588 31.9945 37.4945L35.4928 33.9945Z" fill="#F15F79"/>
<g clip-path="url(#clip0_2905_6472)">
<circle cx="5.1" cy="5.1" r="5.1" transform="matrix(-1 -8.74228e-08 -8.74228e-08 1 36.6 28.4)" fill="#FFFAFB"/>
<path d="M39.0556 33.5002C39.0556 32.0058 38.6124 30.545 37.7822 29.3025C36.952 28.06 35.772 27.0916 34.3914 26.5198C33.0108 25.9479 31.4916 25.7983 30.026 26.0898C28.5604 26.3813 27.2141 27.1009 26.1574 28.1576C25.1008 29.2143 24.3812 30.5605 24.0896 32.0262C23.7981 33.4918 23.9477 35.011 24.5196 36.3916C25.0915 37.7722 26.0599 38.9522 27.3024 39.7824C28.5449 40.6126 30.0057 41.0557 31.5 41.0557C33.5039 41.0557 35.4257 40.2597 36.8426 38.8428C38.2595 37.4258 39.0556 35.504 39.0556 33.5002ZM31.7031 37.278C31.5796 37.1518 31.5105 36.9823 31.5105 36.8057C31.5105 36.6292 31.5796 36.4597 31.7031 36.3335L33.8611 34.1613L27.1839 34.1613C27.0086 34.1613 26.8404 34.0916 26.7164 33.9677C26.5924 33.8437 26.5228 33.6755 26.5228 33.5002C26.5228 33.3248 26.5924 33.1567 26.7164 33.0327C26.8404 32.9087 27.0086 32.8391 27.1839 32.8391L33.795 32.8391L31.7031 30.7471C31.5778 30.6219 31.5075 30.452 31.5075 30.2749C31.5075 30.0978 31.5778 29.9279 31.7031 29.8027C31.8283 29.6774 31.9982 29.6071 32.1753 29.6071C32.3524 29.6071 32.5223 29.6774 32.6475 29.8027L36.3639 33.538L32.6381 37.278C32.5767 37.3394 32.5038 37.3881 32.4236 37.4213C32.3434 37.4545 32.2574 37.4716 32.1706 37.4716C32.0837 37.4716 31.9978 37.4545 31.9176 37.4213C31.8373 37.3881 31.7645 37.3394 31.7031 37.278Z" fill="#F15F79"/>
</g>
<defs>
<clipPath id="clip0_2905_6472">
<rect width="17" height="17" fill="white" transform="translate(40 25) rotate(90)"/>
</clipPath>
</defs>
</svg>
