<svg width="38" height="16" viewBox="0 0 38 16" fill="none" xmlns="http://www.w3.org/2000/svg">
<mask id="path-1-outside-1_4375_2371" maskUnits="userSpaceOnUse" x="-1" y="-1" width="40" height="17" fill="black">
<rect fill="white" x="-1" y="-1" width="40" height="17"/>
<path d="M7.08398 12H0.482422V11.4727H2.04492V0.808594H0.482422V0.28125H10.248L10.3262 4.12891H9.75977L9.33008 2.68359C9.33008 2.67057 9.32357 2.65755 9.31055 2.64453C8.93294 1.42057 8.1582 0.808594 6.98633 0.808594H4.7793V5.67188H8.5293V6.25781H4.7793V11.4727H7.08398V12ZM23.0605 12H17.8262V11.4727H19.2129L17.748 7.72266H13.8613L12.4551 11.4727H13.5488C13.627 11.4727 13.6986 11.4792 13.7637 11.4922C13.9329 11.5182 14.0176 11.6875 14.0176 12H10.4238V11.4727H11.6738L15.9512 0.28125H17.3965L22.0059 11.4727H22.5918C22.6699 11.4727 22.7415 11.4792 22.8066 11.4922C22.9759 11.5182 23.0605 11.6875 23.0605 12ZM17.5137 7.13672L15.7754 2.64453L14.0957 7.13672H17.5137ZM30.0332 0.0859375C31.5046 0.0859375 32.7871 0.483073 33.8809 1.27734C35.4043 2.39714 36.166 4.03125 36.166 6.17969C36.166 6.98698 36.0293 7.7487 35.7559 8.46484C35.196 9.92318 34.1803 10.9779 32.709 11.6289C32.8132 11.7591 32.9173 11.8763 33.0215 11.9805C33.8548 12.9049 34.5905 13.3672 35.2285 13.3672C35.3066 13.3672 35.3913 13.3607 35.4824 13.3477C35.9251 13.3086 36.4395 12.9961 37.0254 12.4102L37.4941 12.6836C36.8301 14.2852 35.9447 15.099 34.8379 15.125C34.1348 15.112 33.4447 14.7474 32.7676 14.0312C32.5332 13.7708 32.0579 13.1133 31.3418 12.0586C30.9251 12.1497 30.4694 12.1953 29.9746 12.1953C28.4512 12.1953 27.123 11.7591 25.9902 10.8867C24.5189 9.74089 23.7832 8.14583 23.7832 6.10156C23.7832 4.31771 24.4017 2.85938 25.6387 1.72656C26.8366 0.632812 28.3014 0.0859375 30.0332 0.0859375ZM29.7012 9.53906C30.4043 9.53906 31.1855 9.99479 32.0449 10.9062C32.7871 10.1641 33.1582 8.55599 33.1582 6.08203C33.1582 4.83203 33.0475 3.8099 32.8262 3.01562C32.3835 1.4401 31.4329 0.652344 29.9746 0.652344C29.4668 0.652344 29.0241 0.74349 28.6465 0.925781C27.4095 1.52474 26.791 3.27604 26.791 6.17969C26.791 8.44531 27.123 9.97526 27.7871 10.7695C28.373 9.96224 29.0111 9.55208 29.7012 9.53906ZM30.0332 11.6289C30.3848 11.6289 30.6973 11.5898 30.9707 11.5117C30.4629 10.8216 29.9746 10.4701 29.5059 10.457C29.0762 10.4701 28.6465 10.7044 28.2168 11.1602C28.6595 11.4596 29.265 11.6159 30.0332 11.6289Z"/>
</mask>
<path d="M7.08398 12H0.482422V11.4727H2.04492V0.808594H0.482422V0.28125H10.248L10.3262 4.12891H9.75977L9.33008 2.68359C9.33008 2.67057 9.32357 2.65755 9.31055 2.64453C8.93294 1.42057 8.1582 0.808594 6.98633 0.808594H4.7793V5.67188H8.5293V6.25781H4.7793V11.4727H7.08398V12ZM23.0605 12H17.8262V11.4727H19.2129L17.748 7.72266H13.8613L12.4551 11.4727H13.5488C13.627 11.4727 13.6986 11.4792 13.7637 11.4922C13.9329 11.5182 14.0176 11.6875 14.0176 12H10.4238V11.4727H11.6738L15.9512 0.28125H17.3965L22.0059 11.4727H22.5918C22.6699 11.4727 22.7415 11.4792 22.8066 11.4922C22.9759 11.5182 23.0605 11.6875 23.0605 12ZM17.5137 7.13672L15.7754 2.64453L14.0957 7.13672H17.5137ZM30.0332 0.0859375C31.5046 0.0859375 32.7871 0.483073 33.8809 1.27734C35.4043 2.39714 36.166 4.03125 36.166 6.17969C36.166 6.98698 36.0293 7.7487 35.7559 8.46484C35.196 9.92318 34.1803 10.9779 32.709 11.6289C32.8132 11.7591 32.9173 11.8763 33.0215 11.9805C33.8548 12.9049 34.5905 13.3672 35.2285 13.3672C35.3066 13.3672 35.3913 13.3607 35.4824 13.3477C35.9251 13.3086 36.4395 12.9961 37.0254 12.4102L37.4941 12.6836C36.8301 14.2852 35.9447 15.099 34.8379 15.125C34.1348 15.112 33.4447 14.7474 32.7676 14.0312C32.5332 13.7708 32.0579 13.1133 31.3418 12.0586C30.9251 12.1497 30.4694 12.1953 29.9746 12.1953C28.4512 12.1953 27.123 11.7591 25.9902 10.8867C24.5189 9.74089 23.7832 8.14583 23.7832 6.10156C23.7832 4.31771 24.4017 2.85938 25.6387 1.72656C26.8366 0.632812 28.3014 0.0859375 30.0332 0.0859375ZM29.7012 9.53906C30.4043 9.53906 31.1855 9.99479 32.0449 10.9062C32.7871 10.1641 33.1582 8.55599 33.1582 6.08203C33.1582 4.83203 33.0475 3.8099 32.8262 3.01562C32.3835 1.4401 31.4329 0.652344 29.9746 0.652344C29.4668 0.652344 29.0241 0.74349 28.6465 0.925781C27.4095 1.52474 26.791 3.27604 26.791 6.17969C26.791 8.44531 27.123 9.97526 27.7871 10.7695C28.373 9.96224 29.0111 9.55208 29.7012 9.53906ZM30.0332 11.6289C30.3848 11.6289 30.6973 11.5898 30.9707 11.5117C30.4629 10.8216 29.9746 10.4701 29.5059 10.457C29.0762 10.4701 28.6465 10.7044 28.2168 11.1602C28.6595 11.4596 29.265 11.6159 30.0332 11.6289Z" fill="url(#paint0_linear_4375_2371)"/>
<path d="M7.08398 12V12.5H7.58398V12H7.08398ZM0.482422 12H-0.0175781V12.5H0.482422V12ZM0.482422 11.4727V10.9727H-0.0175781V11.4727H0.482422ZM2.04492 11.4727V11.9727H2.54492V11.4727H2.04492ZM2.04492 0.808594H2.54492V0.308594H2.04492V0.808594ZM0.482422 0.808594H-0.0175781V1.30859H0.482422V0.808594ZM0.482422 0.28125V-0.21875H-0.0175781V0.28125H0.482422ZM10.248 0.28125L10.7479 0.2711L10.738 -0.21875H10.248V0.28125ZM10.3262 4.12891V4.62891H10.8364L10.8261 4.11876L10.3262 4.12891ZM9.75977 4.12891L9.28049 4.27139L9.38679 4.62891H9.75977V4.12891ZM9.33008 2.68359H8.83008V2.75634L8.85081 2.82608L9.33008 2.68359ZM9.31055 2.64453L8.83276 2.79193L8.86932 2.91041L8.95699 2.99809L9.31055 2.64453ZM4.7793 0.808594V0.308594H4.2793V0.808594H4.7793ZM4.7793 5.67188H4.2793V6.17188H4.7793V5.67188ZM8.5293 5.67188H9.0293V5.17188H8.5293V5.67188ZM8.5293 6.25781V6.75781H9.0293V6.25781H8.5293ZM4.7793 6.25781V5.75781H4.2793V6.25781H4.7793ZM4.7793 11.4727H4.2793V11.9727H4.7793V11.4727ZM7.08398 11.4727H7.58398V10.9727H7.08398V11.4727ZM7.08398 11.5H0.482422V12.5H7.08398V11.5ZM0.982422 12V11.4727H-0.0175781V12H0.982422ZM0.482422 11.9727H2.04492V10.9727H0.482422V11.9727ZM2.54492 11.4727V0.808594H1.54492V11.4727H2.54492ZM2.04492 0.308594H0.482422V1.30859H2.04492V0.308594ZM0.982422 0.808594V0.28125H-0.0175781V0.808594H0.982422ZM0.482422 0.78125H10.248V-0.21875H0.482422V0.78125ZM9.74815 0.2914L9.82628 4.13906L10.8261 4.11876L10.7479 0.2711L9.74815 0.2914ZM10.3262 3.62891H9.75977V4.62891H10.3262V3.62891ZM10.239 3.98642L9.80935 2.54111L8.85081 2.82608L9.28049 4.27139L10.239 3.98642ZM9.83008 2.68359C9.83008 2.49119 9.73162 2.3585 9.6641 2.29098L8.95699 2.99809C8.91552 2.95661 8.83008 2.84995 8.83008 2.68359H9.83008ZM9.78833 2.49713C9.57848 1.81695 9.24366 1.26026 8.75622 0.875221C8.26485 0.487084 7.6629 0.308594 6.98633 0.308594V1.30859C7.48163 1.30859 7.85299 1.43609 8.13636 1.65993C8.42365 1.88687 8.66501 2.24815 8.83276 2.79193L9.78833 2.49713ZM6.98633 0.308594H4.7793V1.30859H6.98633V0.308594ZM4.2793 0.808594V5.67188H5.2793V0.808594H4.2793ZM4.7793 6.17188H8.5293V5.17188H4.7793V6.17188ZM8.0293 5.67188V6.25781H9.0293V5.67188H8.0293ZM8.5293 5.75781H4.7793V6.75781H8.5293V5.75781ZM4.2793 6.25781V11.4727H5.2793V6.25781H4.2793ZM4.7793 11.9727H7.08398V10.9727H4.7793V11.9727ZM6.58398 11.4727V12H7.58398V11.4727H6.58398ZM23.0605 12V12.5H23.5605V12H23.0605ZM17.8262 12H17.3262V12.5H17.8262V12ZM17.8262 11.4727V10.9727H17.3262V11.4727H17.8262ZM19.2129 11.4727V11.9727H19.945L19.6786 11.2907L19.2129 11.4727ZM17.748 7.72266L18.2138 7.54073L18.0895 7.22266H17.748V7.72266ZM13.8613 7.72266V7.22266H13.5148L13.3932 7.54709L13.8613 7.72266ZM12.4551 11.4727L11.9869 11.2971L11.7336 11.9727H12.4551V11.4727ZM13.7637 11.4922L13.6656 11.9825L13.6766 11.9847L13.6876 11.9864L13.7637 11.4922ZM14.0176 12V12.5H14.5176V12H14.0176ZM10.4238 12H9.92383V12.5H10.4238V12ZM10.4238 11.4727V10.9727H9.92383V11.4727H10.4238ZM11.6738 11.4727V11.9727H12.018L12.1409 11.6512L11.6738 11.4727ZM15.9512 0.28125V-0.21875H15.607L15.4841 0.102744L15.9512 0.28125ZM17.3965 0.28125L17.8588 0.0908346L17.7313 -0.21875H17.3965V0.28125ZM22.0059 11.4727L21.5435 11.6631L21.671 11.9727H22.0059V11.4727ZM22.8066 11.4922L22.7086 11.9825L22.7196 11.9847L22.7306 11.9864L22.8066 11.4922ZM17.5137 7.13672V7.63672H18.2433L17.98 6.95628L17.5137 7.13672ZM15.7754 2.64453L16.2417 2.46409L15.7674 1.23833L15.3071 2.46942L15.7754 2.64453ZM14.0957 7.13672L13.6274 6.9616L13.3749 7.63672H14.0957V7.13672ZM23.0605 11.5H17.8262V12.5H23.0605V11.5ZM18.3262 12V11.4727H17.3262V12H18.3262ZM17.8262 11.9727H19.2129V10.9727H17.8262V11.9727ZM19.6786 11.2907L18.2138 7.54073L17.2823 7.90458L18.7472 11.6546L19.6786 11.2907ZM17.748 7.22266H13.8613V8.22266H17.748V7.22266ZM13.3932 7.54709L11.9869 11.2971L12.9232 11.6482L14.3295 7.89822L13.3932 7.54709ZM12.4551 11.9727H13.5488V10.9727H12.4551V11.9727ZM13.5488 11.9727C13.5996 11.9727 13.6379 11.9769 13.6656 11.9825L13.8617 11.0019C13.7593 10.9814 13.6543 10.9727 13.5488 10.9727V11.9727ZM13.6876 11.9864C13.6526 11.981 13.6096 11.9654 13.5699 11.9349C13.5318 11.9056 13.5134 11.8754 13.5069 11.8623C13.5012 11.8508 13.5047 11.8533 13.5092 11.879C13.5137 11.9041 13.5176 11.9433 13.5176 12H14.5176C14.5176 11.8106 14.4939 11.6002 14.4013 11.4151C14.2953 11.2031 14.1033 11.0386 13.8397 10.998L13.6876 11.9864ZM14.0176 11.5H10.4238V12.5H14.0176V11.5ZM10.9238 12V11.4727H9.92383V12H10.9238ZM10.4238 11.9727H11.6738V10.9727H10.4238V11.9727ZM12.1409 11.6512L16.4182 0.459756L15.4841 0.102744L11.2068 11.2941L12.1409 11.6512ZM15.9512 0.78125H17.3965V-0.21875H15.9512V0.78125ZM16.9342 0.471665L21.5435 11.6631L22.4682 11.2822L17.8588 0.0908346L16.9342 0.471665ZM22.0059 11.9727H22.5918V10.9727H22.0059V11.9727ZM22.5918 11.9727C22.6426 11.9727 22.6808 11.9769 22.7086 11.9825L22.9047 11.0019C22.8022 10.9814 22.6972 10.9727 22.5918 10.9727V11.9727ZM22.7306 11.9864C22.6956 11.981 22.6525 11.9654 22.6129 11.9349C22.5748 11.9056 22.5564 11.8754 22.5499 11.8623C22.5441 11.8508 22.5477 11.8533 22.5522 11.879C22.5566 11.9041 22.5605 11.9433 22.5605 12H23.5605C23.5605 11.8106 23.5369 11.6002 23.4443 11.4151C23.3383 11.2031 23.1462 11.0386 22.8827 10.998L22.7306 11.9864ZM17.98 6.95628L16.2417 2.46409L15.3091 2.82497L17.0474 7.31716L17.98 6.95628ZM15.3071 2.46942L13.6274 6.9616L14.564 7.31183L16.2437 2.81965L15.3071 2.46942ZM14.0957 7.63672H17.5137V6.63672H14.0957V7.63672ZM33.8809 1.27734L34.177 0.874463L34.1747 0.872767L33.8809 1.27734ZM35.7559 8.46484L36.2226 8.64405L36.223 8.64319L35.7559 8.46484ZM32.709 11.6289L32.5067 11.1717L31.913 11.4343L32.3186 11.9413L32.709 11.6289ZM33.0215 11.9805L33.3929 11.6457L33.3842 11.6361L33.375 11.6269L33.0215 11.9805ZM35.4824 13.3477L35.4385 12.8496L35.425 12.8508L35.4117 12.8527L35.4824 13.3477ZM37.0254 12.4102L37.2773 11.9783L36.9444 11.7841L36.6718 12.0566L37.0254 12.4102ZM37.4941 12.6836L37.956 12.8751L38.1233 12.4717L37.7461 12.2517L37.4941 12.6836ZM34.8379 15.125L34.8286 15.6249L34.8391 15.6251L34.8497 15.6249L34.8379 15.125ZM32.7676 14.0312L32.3958 14.3658L32.4043 14.3748L32.7676 14.0312ZM31.3418 12.0586L31.7554 11.7777L31.5654 11.4979L31.2349 11.5701L31.3418 12.0586ZM25.9902 10.8867L25.683 11.2812L25.6852 11.2829L25.9902 10.8867ZM25.6387 1.72656L25.3015 1.35732L25.301 1.35782L25.6387 1.72656ZM29.7012 9.53906V9.03897L29.6917 9.03915L29.7012 9.53906ZM32.0449 10.9062L31.6811 11.2493L32.0344 11.6239L32.3985 11.2598L32.0449 10.9062ZM32.8262 3.01562L33.3078 2.8814L33.3075 2.88037L32.8262 3.01562ZM28.6465 0.925781L28.4291 0.475505L28.4286 0.475761L28.6465 0.925781ZM27.7871 10.7695L27.4035 11.0902L27.815 11.5824L28.1918 11.0632L27.7871 10.7695ZM30.0332 11.6289L30.0247 12.1289H30.0332V11.6289ZM30.9707 11.5117L31.1081 11.9925L31.7998 11.7948L31.3734 11.2154L30.9707 11.5117ZM29.5059 10.457L29.5197 9.95722L29.5052 9.95682L29.4907 9.95726L29.5059 10.457ZM28.2168 11.1602L27.853 10.8172L27.4497 11.2449L27.9366 11.5743L28.2168 11.1602ZM30.0332 0.585938C31.4089 0.585938 32.5864 0.955218 33.5871 1.68192L34.1747 0.872767C32.9879 0.0109272 31.6003 -0.414062 30.0332 -0.414062V0.585938ZM33.5847 1.68022C34.9612 2.69197 35.666 4.16544 35.666 6.17969H36.666C36.666 3.89706 35.8474 2.1023 34.177 0.87447L33.5847 1.68022ZM35.666 6.17969C35.666 6.9293 35.5393 7.63028 35.2887 8.28649L36.223 8.64319C36.5193 7.86712 36.666 7.04466 36.666 6.17969H35.666ZM35.2891 8.28563C34.7784 9.6157 33.8605 10.5726 32.5067 11.1717L32.9113 12.0861C34.5002 11.3831 35.6135 10.2307 36.2226 8.64405L35.2891 8.28563ZM32.3186 11.9413C32.4328 12.084 32.5491 12.2152 32.6679 12.334L33.375 11.6269C33.2855 11.5374 33.1935 11.4342 33.0994 11.3166L32.3186 11.9413ZM32.6501 12.3152C33.4978 13.2557 34.3619 13.8672 35.2285 13.8672V12.8672C34.819 12.8672 34.2118 12.5542 33.3929 11.6457L32.6501 12.3152ZM35.2285 13.8672C35.334 13.8672 35.4426 13.8584 35.5531 13.8426L35.4117 12.8527C35.34 12.8629 35.2793 12.8672 35.2285 12.8672V13.8672ZM35.5264 13.8457C36.1515 13.7906 36.7729 13.3697 37.3789 12.7637L36.6718 12.0566C36.106 12.6224 35.6987 12.8266 35.4385 12.8496L35.5264 13.8457ZM36.7735 12.842L37.2422 13.1155L37.7461 12.2517L37.2773 11.9783L36.7735 12.842ZM37.0323 12.4921C36.3959 14.0268 35.6344 14.6061 34.8261 14.6251L34.8497 15.6249C36.2549 15.5918 37.2642 14.5435 37.956 12.8751L37.0323 12.4921ZM34.8471 14.6251C34.3246 14.6154 33.7534 14.3462 33.1309 13.6877L32.4043 14.3748C33.1359 15.1486 33.9449 15.6085 34.8286 15.6249L34.8471 14.6251ZM33.1392 13.6968C32.9325 13.467 32.4775 12.8412 31.7554 11.7777L30.9281 12.3395C31.6384 13.3854 32.1339 14.0746 32.3959 14.3657L33.1392 13.6968ZM31.2349 11.5701C30.8584 11.6525 30.439 11.6953 29.9746 11.6953V12.6953C30.4998 12.6953 30.9918 12.647 31.4486 12.547L31.2349 11.5701ZM29.9746 11.6953C28.5538 11.6953 27.3348 11.2911 26.2953 10.4906L25.6852 11.2829C26.9113 12.2272 28.3485 12.6953 29.9746 12.6953V11.6953ZM26.2974 10.4922C24.9606 9.45112 24.2832 8.00866 24.2832 6.10156H23.2832C23.2832 8.283 24.0772 10.0306 25.683 11.2812L26.2974 10.4922ZM24.2832 6.10156C24.2832 4.44792 24.85 3.12684 25.9764 2.0953L25.301 1.35782C23.9534 2.59191 23.2832 4.18749 23.2832 6.10156H24.2832ZM25.9758 2.09581C27.075 1.09219 28.417 0.585938 30.0332 0.585938V-0.414062C28.1859 -0.414062 26.5982 0.173438 25.3015 1.35732L25.9758 2.09581ZM29.7012 10.0391C30.1914 10.0391 30.8479 10.3655 31.6811 11.2493L32.4087 10.5632C31.5232 9.62409 30.6172 9.03906 29.7012 9.03906V10.0391ZM32.3985 11.2598C32.8636 10.7947 33.1715 10.1035 33.3671 9.25599C33.5642 8.4017 33.6582 7.34007 33.6582 6.08203H32.6582C32.6582 7.29795 32.5666 8.27734 32.3927 9.03112C32.2172 9.79167 31.9684 10.2756 31.6914 10.5527L32.3985 11.2598ZM33.6582 6.08203C33.6582 4.80746 33.5459 3.73568 33.3078 2.8814L32.3445 3.14985C32.5492 3.88412 32.6582 4.8566 32.6582 6.08203H33.6582ZM33.3075 2.88037C33.0675 2.02621 32.6756 1.33498 32.1003 0.85819C31.5197 0.376987 30.7982 0.152344 29.9746 0.152344V1.15234C30.6094 1.15234 31.0923 1.32158 31.4622 1.62814C31.8374 1.93911 32.1421 2.42952 32.3448 3.15088L33.3075 2.88037ZM29.9746 0.152344C29.4072 0.152344 28.8873 0.254305 28.4291 0.475505L28.8639 1.37606C29.1609 1.23267 29.5264 1.15234 29.9746 1.15234V0.152344ZM28.4286 0.475761C27.6547 0.850486 27.1207 1.56691 26.7834 2.52197C26.4477 3.47248 26.291 4.6994 26.291 6.17969H27.291C27.291 4.75632 27.4435 3.65578 27.7263 2.85498C28.0075 2.05874 28.4013 1.60003 28.8644 1.3758L28.4286 0.475761ZM26.291 6.17969C26.291 7.33381 26.3753 8.32093 26.5514 9.13241C26.7265 9.93933 26.9998 10.6074 27.4035 11.0902L28.1707 10.4488C27.9103 10.1374 27.6856 9.64335 27.5287 8.92033C27.3727 8.20186 27.291 7.29119 27.291 6.17969H26.291ZM28.1918 11.0632C28.7287 10.3235 29.2384 10.0479 29.7106 10.039L29.6917 9.03915C28.7837 9.05628 28.0174 9.601 27.3825 10.4758L28.1918 11.0632ZM30.0332 12.1289C30.4207 12.1289 30.7809 12.086 31.1081 11.9925L30.8333 11.031C30.6136 11.0937 30.3488 11.1289 30.0332 11.1289V12.1289ZM31.3734 11.2154C30.8455 10.498 30.2322 9.97701 29.5197 9.95722L29.492 10.9568C29.717 10.9631 30.0802 11.1452 30.568 11.8081L31.3734 11.2154ZM29.4907 9.95726C28.8784 9.97581 28.3321 10.3091 27.853 10.8172L28.5806 11.5032C28.9609 11.0998 29.2739 10.9643 29.521 10.9568L29.4907 9.95726ZM27.9366 11.5743C28.4876 11.947 29.1999 12.1149 30.0247 12.1288L30.0417 11.129C29.33 11.1169 28.8314 10.9723 28.4969 10.746L27.9366 11.5743Z" fill="url(#paint1_linear_4375_2371)" mask="url(#path-1-outside-1_4375_2371)"/>
<defs>
<linearGradient id="paint0_linear_4375_2371" x1="18.5" y1="-7" x2="18.5" y2="21" gradientUnits="userSpaceOnUse">
<stop stop-color="#E31B54"/>
<stop offset="0.0001" stop-color="#E31B54"/>
<stop offset="0.515625" stop-color="#EF7195"/>
<stop offset="1" stop-color="#E31C55"/>
</linearGradient>
<linearGradient id="paint1_linear_4375_2371" x1="18.5" y1="-7" x2="18.5" y2="21" gradientUnits="userSpaceOnUse">
<stop stop-color="#E31B54"/>
<stop offset="0.505208" stop-color="#EF7195"/>
<stop offset="1" stop-color="#E31C55"/>
</linearGradient>
</defs>
</svg>
