<svg width="48" height="68" viewBox="0 0 48 68" fill="none" xmlns="http://www.w3.org/2000/svg">
<rect width="48" height="48" rx="7" fill="#FFFAFB"/>
<g clip-path="url(#clip0_2905_6440)">
<path d="M31.3471 27.5971C31.4 27.5442 31.4628 27.5021 31.5319 27.4735C31.6011 27.4448 31.6752 27.43 31.75 27.43C31.8248 27.43 31.8989 27.4448 31.9681 27.4735C32.0372 27.5021 32.1 27.5442 32.1529 27.5971C32.6308 28.0751 33.2433 28.3959 33.9084 28.5165C34.5735 28.6372 35.2596 28.5519 35.875 28.2722V33.5C36.2397 33.5 36.5894 33.6449 36.8473 33.9027C37.1051 34.1606 37.25 34.5103 37.25 34.875C37.25 35.2397 37.1051 35.5894 36.8473 35.8473C36.5894 36.1051 36.2397 36.25 35.875 36.25H11.125C10.7603 36.25 10.4106 36.1051 10.1527 35.8473C9.89487 35.5894 9.75 35.2397 9.75 34.875C9.75 34.5103 9.89487 34.1606 10.1527 33.9027C10.4106 33.6449 10.7603 33.5 11.125 33.5V28.2722C12.3487 28.8291 13.8406 28.6036 14.8471 27.5985C14.9 27.5455 14.9628 27.5035 15.0319 27.4748C15.1011 27.4462 15.1752 27.4314 15.25 27.4314C15.3248 27.4314 15.3989 27.4462 15.4681 27.4748C15.5372 27.5035 15.6 27.5455 15.6529 27.5985C15.9611 27.9067 16.327 28.1512 16.7297 28.3181C17.1325 28.4849 17.5641 28.5707 18 28.5707C18.4359 28.5707 18.8675 28.4849 19.2703 28.3181C19.673 28.1512 20.0389 27.9067 20.3471 27.5985C20.4 27.5455 20.4628 27.5035 20.5319 27.4748C20.6011 27.4462 20.6752 27.4314 20.75 27.4314C20.8248 27.4314 20.8989 27.4462 20.9681 27.4748C21.0372 27.5035 21.1 27.5455 21.1529 27.5985C21.4611 27.9067 21.827 28.1512 22.2297 28.3181C22.6325 28.4849 23.0641 28.5707 23.5 28.5707C23.9359 28.5707 24.3675 28.4849 24.7703 28.3181C25.173 28.1512 25.5389 27.9067 25.8471 27.5985C25.9 27.5455 25.9628 27.5035 26.0319 27.4748C26.1011 27.4462 26.1752 27.4314 26.25 27.4314C26.3248 27.4314 26.3989 27.4462 26.4681 27.4748C26.5372 27.5035 26.6 27.5455 26.6529 27.5985C26.9611 27.9067 27.327 28.1512 27.7297 28.3181C28.1325 28.4849 28.5641 28.5707 29 28.5707C29.4359 28.5707 29.8675 28.4849 30.2703 28.3181C30.673 28.1512 31.0389 27.9067 31.3471 27.5985V27.5971ZM29 14.25C29.3647 14.25 29.7144 14.3949 29.9723 14.6527C30.2301 14.9106 30.375 15.2603 30.375 15.625V18.375H31.75C32.844 18.375 33.8932 18.8096 34.6668 19.5832C35.4404 20.3568 35.875 21.406 35.875 22.5V24.6808L34.9029 25.6529C34.85 25.7058 34.7872 25.7479 34.7181 25.7765C34.6489 25.8052 34.5748 25.82 34.5 25.82C34.4252 25.82 34.3511 25.8052 34.2819 25.7765C34.2128 25.7479 34.15 25.7058 34.0971 25.6529C33.7889 25.3446 33.423 25.1001 33.0203 24.9333C32.6175 24.7665 32.1859 24.6806 31.75 24.6806C31.3141 24.6806 30.8825 24.7665 30.4797 24.9333C30.077 25.1001 29.7111 25.3446 29.4029 25.6529C29.35 25.7058 29.2872 25.7479 29.2181 25.7765C29.1489 25.8052 29.0748 25.82 29 25.82C28.9252 25.82 28.8511 25.8052 28.7819 25.7765C28.7128 25.7479 28.65 25.7058 28.5971 25.6529C28.2889 25.3446 27.923 25.1001 27.5203 24.9333C27.1175 24.7665 26.6859 24.6806 26.25 24.6806C25.8141 24.6806 25.3825 24.7665 24.9797 24.9333C24.577 25.1001 24.2111 25.3446 23.9029 25.6529C23.85 25.7058 23.7872 25.7479 23.7181 25.7765C23.6489 25.8052 23.5748 25.82 23.5 25.82C23.4252 25.82 23.3511 25.8052 23.2819 25.7765C23.2128 25.7479 23.15 25.7058 23.0971 25.6529C22.7889 25.3446 22.423 25.1001 22.0203 24.9333C21.6175 24.7665 21.1859 24.6806 20.75 24.6806C20.3141 24.6806 19.8825 24.7665 19.4797 24.9333C19.077 25.1001 18.7111 25.3446 18.4029 25.6529C18.35 25.7058 18.2872 25.7479 18.2181 25.7765C18.1489 25.8052 18.0748 25.82 18 25.82C17.9252 25.82 17.8511 25.8052 17.7819 25.7765C17.7128 25.7479 17.65 25.7058 17.5971 25.6529C17.2889 25.3446 16.923 25.1001 16.5203 24.9333C16.1175 24.7665 15.6859 24.6806 15.25 24.6806C14.8141 24.6806 14.3825 24.7665 13.9797 24.9333C13.577 25.1001 13.2111 25.3446 12.9029 25.6529C12.85 25.7058 12.7872 25.7479 12.7181 25.7765C12.6489 25.8052 12.5748 25.82 12.5 25.82C12.4252 25.82 12.3511 25.8052 12.2819 25.7765C12.2128 25.7479 12.15 25.7058 12.0971 25.6529L11.125 24.6808V22.5C11.125 21.406 11.5596 20.3568 12.3332 19.5832C13.1068 18.8096 14.156 18.375 15.25 18.375H16.625V15.625C16.625 15.2603 16.7699 14.9106 17.0277 14.6527C17.2856 14.3949 17.6353 14.25 18 14.25C18.3647 14.25 18.7144 14.3949 18.9723 14.6527C19.2301 14.9106 19.375 15.2603 19.375 15.625V18.375H22.125V15.625C22.125 15.2603 22.2699 14.9106 22.5277 14.6527C22.7856 14.3949 23.1353 14.25 23.5 14.25C23.8647 14.25 24.2144 14.3949 24.4723 14.6527C24.7301 14.9106 24.875 15.2603 24.875 15.625V18.375H27.625V15.625C27.625 15.2603 27.7699 14.9106 28.0277 14.6527C28.2856 14.3949 28.6353 14.25 29 14.25ZM24.1875 8.75C23.7489 9.62725 24.149 10.1938 24.4969 10.6888C24.6949 10.9679 24.875 11.225 24.875 11.5C24.875 11.8647 24.7301 12.2144 24.4723 12.4723C24.2144 12.7301 23.8647 12.875 23.5 12.875C23.1353 12.875 22.7856 12.7301 22.5277 12.4723C22.2699 12.2144 22.125 11.8647 22.125 11.5C22.125 10.741 22.8125 9.4375 24.1875 8.75ZM18.6875 8.75C18.2489 9.62725 18.649 10.1938 18.9969 10.6888C19.1949 10.9679 19.375 11.225 19.375 11.5C19.375 11.8647 19.2301 12.2144 18.9723 12.4723C18.7144 12.7301 18.3647 12.875 18 12.875C17.6353 12.875 17.2856 12.7301 17.0277 12.4723C16.7699 12.2144 16.625 11.8647 16.625 11.5C16.625 10.741 17.3125 9.4375 18.6875 8.75ZM29.6875 8.75C29.2489 9.62725 29.649 10.1938 29.9969 10.6888C30.1949 10.9679 30.375 11.225 30.375 11.5C30.375 11.8647 30.2301 12.2144 29.9723 12.4723C29.7144 12.7301 29.3647 12.875 29 12.875C28.6353 12.875 28.2856 12.7301 28.0277 12.4723C27.7699 12.2144 27.625 11.8647 27.625 11.5C27.625 10.741 28.3125 9.4375 29.6875 8.75Z" fill="#F15F79"/>
</g>
<path d="M14.6896 63.361H10.8286V57.08H11.9616V59.379H13.5676V57.069H14.6896V59.632H15.8226V56.266H16.8786V65.407H15.8226V60.578H14.6896V63.361ZM18.8146 65.869H17.7366V56.068H18.8146V65.869ZM13.5676 62.459V60.281H11.9616V62.459H13.5676ZM28.1342 65.869H27.0122V56.068H28.1342V65.869ZM21.0282 62.756C20.5809 62.1327 20.3572 61.3003 20.3572 60.259C20.3572 59.2177 20.5809 58.3853 21.0282 57.762C21.4755 57.1387 22.0879 56.827 22.8652 56.827C23.6425 56.827 24.2512 57.1387 24.6912 57.762C25.1312 58.3853 25.3512 59.2213 25.3512 60.27C25.3512 61.3113 25.1312 62.1437 24.6912 62.767C24.2512 63.383 23.6425 63.691 22.8652 63.691C22.0879 63.691 21.4755 63.3793 21.0282 62.756ZM23.8882 62.107C24.1522 61.6523 24.2842 61.0363 24.2842 60.259C24.2842 59.4817 24.1522 58.8693 23.8882 58.422C23.6315 57.9747 23.2905 57.751 22.8652 57.751C22.4472 57.751 22.1099 57.9747 21.8532 58.422C21.5965 58.8693 21.4682 59.4817 21.4682 60.259C21.4682 61.0363 21.5965 61.6523 21.8532 62.107C22.1099 62.5543 22.4472 62.778 22.8652 62.778C23.2905 62.778 23.6315 62.5543 23.8882 62.107ZM37.7398 63.933C37.7398 64.5123 37.4391 64.978 36.8378 65.33C36.2438 65.6893 35.4225 65.869 34.3738 65.869C33.3325 65.869 32.5185 65.6893 31.9318 65.33C31.3451 64.978 31.0518 64.5123 31.0518 63.933C31.0518 63.339 31.3451 62.866 31.9318 62.514C32.5185 62.1547 33.3325 61.975 34.3738 61.975C35.4225 61.975 36.2438 62.1547 36.8378 62.514C37.4391 62.866 37.7398 63.339 37.7398 63.933ZM34.6928 56.706C34.6708 57.9967 34.2638 59.104 33.4718 60.028C32.6871 60.952 31.6385 61.601 30.3258 61.975L29.7428 61.106C31.0188 60.776 32.0051 60.1747 32.7018 59.302L29.9738 59.588L29.7538 58.664L33.2408 58.4C33.3508 58.1067 33.4241 57.8573 33.4608 57.652H30.2048V56.706H34.6928ZM35.9908 64.692C36.3795 64.5087 36.5738 64.2557 36.5738 63.933C36.5738 63.6103 36.3795 63.3573 35.9908 63.174C35.6095 62.9907 35.0705 62.899 34.3738 62.899C33.6991 62.899 33.1675 62.9907 32.7788 63.174C32.3975 63.3573 32.2068 63.6103 32.2068 63.933C32.2068 64.2557 32.3975 64.5087 32.7788 64.692C33.1675 64.868 33.6991 64.956 34.3738 64.956C35.0705 64.956 35.6095 64.868 35.9908 64.692ZM37.6518 61.876H36.5298V56.068H37.6518V61.876Z" fill="#454545"/>
<defs>
<clipPath id="clip0_2905_6440">
<rect width="33" height="33" fill="white" transform="translate(7 6)"/>
</clipPath>
</defs>
</svg>
