<svg width="48" height="68" viewBox="0 0 48 68" fill="none" xmlns="http://www.w3.org/2000/svg">
<rect width="48" height="48" rx="7" fill="#FFFAFB"/>
<path d="M8.58502 57.245V59.654H9.64102V56.266H10.708V65.407H9.64102V60.589H8.58502V63.251H4.66902V57.245H8.58502ZM12.611 65.869H11.522V56.068H12.611V65.869ZM7.52902 62.371V58.136H5.73602V62.371H7.52902ZM19.1366 58.664C19.1366 59.302 18.9019 59.8227 18.4326 60.226C17.9633 60.622 17.3656 60.82 16.6396 60.82C15.9283 60.82 15.3343 60.6257 14.8576 60.237C14.3809 59.841 14.1426 59.3167 14.1426 58.664C14.1426 58.0113 14.3773 57.476 14.8466 57.058C15.3233 56.6327 15.9209 56.42 16.6396 56.42C17.3583 56.42 17.9523 56.629 18.4216 57.047C18.8983 57.465 19.1366 58.004 19.1366 58.664ZM18.0256 58.653C18.0256 58.279 17.8973 57.971 17.6406 57.729C17.3913 57.4797 17.0576 57.355 16.6396 57.355C16.2583 57.355 15.9319 57.4833 15.6606 57.74C15.3893 57.9893 15.2536 58.2937 15.2536 58.653C15.2536 59.0123 15.3856 59.3093 15.6496 59.544C15.9136 59.7713 16.2436 59.885 16.6396 59.885C17.0503 59.885 17.3839 59.7677 17.6406 59.533C17.8973 59.291 18.0256 58.9977 18.0256 58.653ZM22.2606 65.792H15.5616V63.229H20.8196V62.426H15.5176V61.513H21.9416V64.065H16.6946V64.901H22.2606V65.792ZM21.9306 61.007H20.8086V56.068H21.9306V61.007ZM33.9528 56.585V60.083H27.4408V56.585H33.9528ZM31.2908 63.757H30.1688V61.953H26.2748V61.04H35.1298V61.953H31.2908V63.757ZM34.0958 65.583H27.4188V62.811H28.5518V64.692H34.0958V65.583ZM32.8198 59.181V57.487H28.5738V59.181H32.8198ZM41.4464 59.181C41.4464 59.8483 41.2007 60.3873 40.7094 60.798C40.2254 61.2087 39.6167 61.414 38.8834 61.414C38.1574 61.414 37.5561 61.2087 37.0794 60.798C36.6101 60.38 36.3754 59.841 36.3754 59.181C36.3754 58.5063 36.6137 57.949 37.0904 57.509C37.5744 57.0617 38.1721 56.838 38.8834 56.838C39.6167 56.838 40.2254 57.058 40.7094 57.498C41.2007 57.938 41.4464 58.499 41.4464 59.181ZM40.3134 59.17C40.3134 58.7593 40.1777 58.4293 39.9064 58.18C39.6351 57.9307 39.2941 57.806 38.8834 57.806C38.4947 57.806 38.1611 57.9343 37.8824 58.191C37.6111 58.4477 37.4754 58.774 37.4754 59.17C37.4754 59.5513 37.6111 59.863 37.8824 60.105C38.1611 60.3397 38.4947 60.457 38.8834 60.457C39.2794 60.457 39.6167 60.3397 39.8954 60.105C40.1741 59.863 40.3134 59.5513 40.3134 59.17ZM43.9874 56.068V65.869H42.8654V56.068H43.9874ZM42.3154 62.459L42.4034 63.361C40.4381 63.5737 38.2674 63.6873 35.8914 63.702L35.7154 62.734C37.0134 62.7487 38.0987 62.7303 38.9714 62.679C40.2914 62.6277 41.4061 62.5543 42.3154 62.459Z" fill="#454545"/>
<g clip-path="url(#clip0_2905_6459)">
<path fill-rule="evenodd" clip-rule="evenodd" d="M19.6822 25.3009L23.5027 27.9132L27.1855 25.3724L35.4408 33.517C35.2234 33.5872 34.9912 33.625 34.7495 33.625H12.2505C11.9535 33.625 11.67 33.5669 11.4094 33.463L19.6822 25.3009ZM37 18.6076V31.3745C37 31.708 36.9271 32.0239 36.7975 32.3088L28.7056 24.3249L37 18.6076ZM10 18.6792L18.1567 24.2573L10.1431 32.1657C10.0482 31.9127 9.99971 31.6447 10 31.3745V18.6792ZM34.7495 13.375C35.9916 13.375 37 14.3821 37 15.6254V16.4165L23.4973 25.7248L10 16.4935V15.6254C10 14.3834 11.0071 13.375 12.2505 13.375H34.7495Z" fill="#F15F79"/>
</g>
<defs>
<clipPath id="clip0_2905_6459">
<rect width="27" height="27" fill="white" transform="translate(10 10)"/>
</clipPath>
</defs>
</svg>
