<svg width="22" height="22" viewBox="0 0 22 22" fill="none" xmlns="http://www.w3.org/2000/svg">
<path fill-rule="evenodd" clip-rule="evenodd" d="M9.74362 7.00745H4.68604C3.74323 7.00745 3.27182 7.00745 2.97893 7.30034C2.68604 7.59323 2.68604 8.06464 2.68604 9.00745V9.38708C2.68604 10.3299 2.68604 10.8013 2.97893 11.0942C3.05185 11.1671 3.13584 11.2219 3.23541 11.263H9.74362V7.00745ZM5.3719 13.263V16.3945C5.3719 17.3373 5.3719 17.8087 5.66479 18.1016C5.95768 18.3945 6.42909 18.3945 7.3719 18.3945H9.74362V13.263H5.3719ZM11.7436 18.3945H14.1153C15.0581 18.3945 15.5296 18.3945 15.8224 18.1016C16.1153 17.8087 16.1153 17.3373 16.1153 16.3945V13.263H11.7436V18.3945ZM18.2518 11.263C18.3514 11.2219 18.4354 11.1671 18.5083 11.0942C18.8012 10.8013 18.8012 10.3299 18.8012 9.38708V9.00745C18.8012 8.06464 18.8012 7.59323 18.5083 7.30034C18.2154 7.00745 17.744 7.00745 16.8012 7.00745H11.7436V11.263H18.2518Z" fill="white"/>
<path d="M17.0103 4.04685V3.94418C17.0103 2.86257 15.9543 2.09622 14.9259 2.43158C13.6469 2.84872 12.4812 3.55518 11.5195 4.49606L10.7432 5.25553V6.13146H14.0065C14.2171 6.13146 14.4264 6.0982 14.6266 6.0329L15.8611 5.63029C16.5465 5.40678 17.0103 4.76773 17.0103 4.04685Z" fill="white"/>
<path d="M4.47656 4.04685V3.94418C4.47656 2.86257 5.53256 2.09622 6.56087 2.43158C7.83996 2.84872 9.00563 3.55518 9.9673 4.49606L10.7436 5.25553V6.13146H7.48031C7.26971 6.13146 7.06043 6.0982 6.8602 6.0329L5.62568 5.63029C4.94033 5.40678 4.47656 4.76773 4.47656 4.04685Z" fill="white"/>
</svg>
