<svg width="21" height="21" viewBox="0 0 21 21" fill="none" xmlns="http://www.w3.org/2000/svg">
<path d="M14.398 6.52314C14.5829 6.34712 14.8289 6.24981 15.0842 6.25174C15.3395 6.25367 15.584 6.35469 15.7662 6.53349C15.9484 6.71229 16.054 6.95488 16.0608 7.21007C16.0675 7.46526 15.9749 7.71309 15.8024 7.90126L10.5655 14.4506C10.4754 14.5476 10.3668 14.6255 10.2459 14.6795C10.1251 14.7335 9.99465 14.7626 9.86233 14.7651C9.73 14.7675 9.59854 14.7433 9.4758 14.6938C9.35307 14.6442 9.24157 14.5705 9.148 14.4769L5.67512 11.004C5.57841 10.9139 5.50084 10.8052 5.44703 10.6845C5.39323 10.5637 5.3643 10.4334 5.36197 10.3012C5.35964 10.169 5.38395 10.0377 5.43346 9.91517C5.48297 9.79259 5.55666 9.68125 5.65013 9.58778C5.74361 9.4943 5.85495 9.42061 5.97752 9.3711C6.1001 9.32159 6.23138 9.29728 6.36356 9.29961C6.49573 9.30194 6.62608 9.33087 6.74683 9.38468C6.86758 9.43848 6.97625 9.51605 7.06637 9.61276L9.81475 12.3598L14.3731 6.55201C14.3813 6.54191 14.3887 6.53227 14.398 6.52314Z" fill="#949494"/>
</svg>
