<svg width="48" height="68" viewBox="0 0 48 68" fill="none" xmlns="http://www.w3.org/2000/svg">
<rect width="48" height="48" rx="7" fill="#FFFAFB"/>
<path d="M14.2447 64.538V57.003H18.7327V57.949H15.3777V60.347H17.9737V61.282H15.3777V64.538H14.2447ZM19.276 64.538L22.004 57.003H23.148L25.854 64.538H24.666L23.94 62.492H21.058L20.343 64.538H19.276ZM22.466 58.433L21.366 61.59H23.61L22.499 58.433H22.466ZM33.1591 60.875C33.1591 62.745 32.4257 63.889 30.9591 64.307L33.4121 64.901L33.1481 65.869L28.8801 64.604C27.2521 64.12 26.4381 62.877 26.4381 60.875V60.655C26.4381 59.4743 26.7424 58.5503 27.3511 57.883C27.9597 57.2083 28.7847 56.871 29.8261 56.871C30.8674 56.871 31.6814 57.1973 32.2681 57.85C32.8621 58.5027 33.1591 59.4377 33.1591 60.655V60.875ZM29.8151 63.779C30.5117 63.779 31.0397 63.5297 31.3991 63.031C31.7584 62.525 31.9381 61.8613 31.9381 61.04V60.677C31.9381 58.7557 31.2157 57.7913 29.7711 57.784C29.0744 57.784 28.5464 58.0297 28.1871 58.521C27.8351 59.0123 27.6591 59.665 27.6591 60.479V60.864C27.6591 62.8073 28.3777 63.779 29.8151 63.779Z" fill="#454545"/>
<g clip-path="url(#clip0_2905_6464)">
<path d="M24 9C22.0385 9 20.5385 10.5 20.5385 12.4615V19.3846C20.5385 21.3462 22.0385 22.8462 24 22.8462H30.9231L35.5385 27.4615V22.8462C37.5 22.8462 39 21.3462 39 19.3846V12.4615C39 10.5 37.5 9 35.5385 9H24ZM28.8323 12.4615H30.8146L32.7623 19.3846H31.0315L30.5619 17.6538H28.8312L28.3996 19.3846H26.8846L28.8323 12.4615ZM29.7692 13.6154C29.6538 14.0769 29.5246 14.64 29.4081 14.9862L29.085 16.5H30.4546L30.1292 14.985C29.8996 14.64 29.7692 14.0769 29.7692 13.6154ZM12.4615 20.5385C10.5 20.5385 9 22.0385 9 24V30.9231C9 32.8846 10.5 34.3846 12.4615 34.3846V39L17.0769 34.3846H24C25.9615 34.3846 27.4615 32.8846 27.4615 30.9231V24H24C21.8077 24 20.07 22.5 19.4931 20.5385H12.4615ZM17.7623 23.8915C19.7238 23.8915 20.6469 25.5069 20.6469 27.3531C20.6469 28.9685 20.0919 29.9931 19.1688 30.4546C19.6304 30.6854 20.1773 30.8077 20.7542 30.9231L20.3227 32.0769C19.515 31.8462 18.6773 31.4862 17.8696 31.1388C17.7542 31.0235 17.5523 31.0315 17.4369 31.0315C16.0523 30.9162 14.7692 29.7692 14.7692 27.4615C14.7692 25.5 15.9162 23.8915 17.7623 23.8915ZM17.7623 25.1538C16.8392 25.1538 16.3915 26.1923 16.3915 27.4615C16.3915 28.8462 16.8392 29.7692 17.7623 29.7692C18.6854 29.7692 19.1677 28.7308 19.1677 27.4615C19.1677 26.1923 18.6854 25.1538 17.7623 25.1538Z" fill="#F15F79"/>
</g>
<defs>
<clipPath id="clip0_2905_6464">
<rect width="30" height="30" fill="white" transform="translate(9 9)"/>
</clipPath>
</defs>
</svg>
