<svg width="49" height="68" viewBox="0 0 49 68" fill="none" xmlns="http://www.w3.org/2000/svg">
<rect x="1" width="48" height="48" rx="7" fill="#FFFAFB"/>
<path d="M8.52206 58.554H5.60705C5.76839 59.038 6.16805 59.445 6.80605 59.775C7.45139 60.105 8.16639 60.3067 8.95105 60.38L8.45606 61.282C7.76672 61.2013 7.08105 60.985 6.39905 60.633C5.72439 60.2737 5.24772 59.8667 4.96905 59.412C4.71972 59.8813 4.26505 60.292 3.60505 60.644C2.94505 60.996 2.23372 61.2197 1.47105 61.315L0.965055 60.413C1.78639 60.3177 2.51605 60.1087 3.15405 59.786C3.79205 59.456 4.18805 59.0453 4.34205 58.554H1.40505V57.663H8.52206V58.554ZM5.50805 65.869H4.38605V62.822H0.536055V61.931H9.39106V62.822H5.50805V65.869ZM3.36305 57.025V56.123H6.55305V57.025H3.36305ZM18.1276 61.788H16.9946V59.357H15.5536V58.411H16.9946V56.068H18.1276V61.788ZM11.5276 62.305H18.1386V65.88H17.0056V63.185H11.5276V62.305ZM14.4316 57.245C14.923 57.6923 15.1686 58.257 15.1686 58.939C15.1686 59.621 14.9266 60.1783 14.4426 60.611C13.966 61.0363 13.3683 61.249 12.6496 61.249C11.953 61.249 11.359 61.0327 10.8676 60.6C10.3836 60.1673 10.1416 59.6137 10.1416 58.939C10.1416 58.2643 10.3836 57.7033 10.8676 57.256C11.359 56.8013 11.953 56.574 12.6496 56.574C13.3536 56.574 13.9476 56.7977 14.4316 57.245ZM14.0686 58.928C14.0686 58.5247 13.9403 58.1873 13.6836 57.916C13.427 57.6373 13.0823 57.498 12.6496 57.498C12.2463 57.498 11.9126 57.641 11.6486 57.927C11.3846 58.2057 11.2526 58.5393 11.2526 58.928C11.2526 59.3387 11.3846 59.6833 11.6486 59.962C11.9126 60.2333 12.2463 60.369 12.6496 60.369C13.0676 60.369 13.4086 60.2333 13.6726 59.962C13.9366 59.6833 14.0686 59.3387 14.0686 58.928ZM27.1832 56.068V59.896H28.6572V60.842H27.1832V65.869H26.0502V56.068H27.1832ZM25.4342 62.624L24.7632 63.471C24.3159 63.1777 23.8575 62.756 23.3882 62.206C22.9189 61.6487 22.5999 61.1133 22.4312 60.6C22.2625 61.1793 21.9545 61.7513 21.5072 62.316C21.0672 62.8807 20.5759 63.3243 20.0332 63.647L19.3402 62.822C20.1175 62.316 20.7262 61.6743 21.1662 60.897C21.6135 60.1197 21.8372 59.269 21.8372 58.345V56.915H22.9922V58.279C22.9922 59.1957 23.2122 60.0317 23.6522 60.787C24.0995 61.5423 24.6935 62.1547 25.4342 62.624ZM29.5288 57.685V56.783H34.6988V57.685H32.7408V57.883C32.7408 58.5797 32.9608 59.1993 33.4008 59.742C33.8408 60.2847 34.3651 60.655 34.9738 60.853L34.3578 61.755C33.9398 61.5937 33.5218 61.3187 33.1038 60.93C32.6858 60.5413 32.3705 60.127 32.1578 59.687C32.0185 60.1563 31.7178 60.6183 31.2558 61.073C30.8011 61.5203 30.3245 61.8357 29.8258 62.019L29.1548 61.139C29.8588 60.8823 30.4381 60.4607 30.8928 59.874C31.3548 59.2873 31.5858 58.6457 31.5858 57.949V57.685H29.5288ZM37.3718 65.594H30.7058V62.503H31.8278V64.692H37.3718V65.594ZM37.1518 63.174H36.0298V56.068H37.1518V63.174ZM46.6914 65.748H40.3114V61.942H41.4444V62.943H45.5694V61.909H46.6914V65.748ZM38.9474 58.598V57.685H44.0844V58.598H42.1374C42.218 59.1407 42.46 59.5917 42.8634 59.951C43.2667 60.303 43.7544 60.5597 44.3264 60.721L43.7544 61.579C43.329 61.447 42.9 61.2233 42.4674 60.908C42.042 60.5853 41.7267 60.2223 41.5214 59.819C41.3527 60.2517 41.0484 60.6587 40.6084 61.04C40.1684 61.414 39.688 61.689 39.1674 61.865L38.5294 61.007C39.1967 60.787 39.743 60.4753 40.1684 60.072C40.5937 59.6613 40.843 59.17 40.9164 58.598H38.9474ZM46.6804 61.447H45.5584V59.984H43.9634V59.038H45.5584V56.068H46.6804V61.447ZM45.5694 64.835V63.834H41.4444V64.835H45.5694ZM40.1244 57.069V56.156H42.9074V57.069H40.1244Z" fill="#454545"/>
<path d="M13.375 32.7917H20.125C21.4056 32.7917 22.0459 32.7917 22.5568 32.9839C23.3653 33.2883 24.0034 33.9264 24.3077 34.7349C24.5 35.2458 24.5 35.8861 24.5 37.1667V19.8333C24.5 17.0049 24.5 15.5907 23.6213 14.712C22.7426 13.8333 21.3284 13.8333 18.5 13.8333H13.375C12.4322 13.8333 11.9608 13.8333 11.6679 14.1262C11.375 14.4191 11.375 14.8905 11.375 15.8333V30.7917C11.375 31.7345 11.375 32.2059 11.6679 32.4988C11.9608 32.7917 12.4322 32.7917 13.375 32.7917Z" fill="#F15F79" stroke="#F15F79" stroke-width="1.2"/>
<path d="M35.625 32.7917H28.875C27.5944 32.7917 26.9541 32.7917 26.4432 32.9839C25.6347 33.2883 24.9966 33.9264 24.6923 34.7349C24.5 35.2458 24.5 35.8861 24.5 37.1667V19.8333C24.5 17.0049 24.5 15.5907 25.3787 14.712C26.2574 13.8333 27.6716 13.8333 30.5 13.8333H35.625C36.5678 13.8333 37.0392 13.8333 37.3321 14.1262C37.625 14.4191 37.625 14.8905 37.625 15.8333V30.7917C37.625 31.7345 37.625 32.2059 37.3321 32.4988C37.0392 32.7917 36.5678 32.7917 35.625 32.7917Z" fill="#F15F79" stroke="#F15F79" stroke-width="1.2"/>
</svg>
