<svg width="48" height="68" viewBox="0 0 48 68" fill="none" xmlns="http://www.w3.org/2000/svg">
<rect width="48" height="48" rx="7" fill="#FFFAFB"/>
<g clip-path="url(#clip0_2905_6452)">
<path d="M24.9375 15.0938C24.9375 14.4448 25.1299 13.8104 25.4905 13.2708C25.851 12.7312 26.3635 12.3106 26.9631 12.0623C27.5626 11.8139 28.2224 11.7489 28.8589 11.8755C29.4954 12.0022 30.08 12.3147 30.5389 12.7736C30.9978 13.2324 31.3103 13.8171 31.4369 14.4536C31.5636 15.0901 31.4986 15.7499 31.2502 16.3494C31.0019 16.949 30.5813 17.4615 30.0417 17.822C29.5021 18.1826 28.8677 18.375 28.2187 18.375C27.3485 18.375 26.5139 18.0293 25.8986 17.4139C25.2832 16.7986 24.9375 15.964 24.9375 15.0938ZM38.8828 32.9063C38.8003 33.0491 38.6816 33.1677 38.5386 33.25C38.3955 33.3323 38.2334 33.3755 38.0684 33.375H9.9375C9.77227 33.3749 9.61 33.3312 9.46712 33.2482C9.32424 33.1653 9.20582 33.046 9.12385 32.9026C9.04189 32.7591 8.9993 32.5965 9.00039 32.4313C9.00149 32.2661 9.04622 32.1041 9.13008 31.9617L17.6965 17.4234C17.8621 17.142 18.0983 16.9087 18.3817 16.7466C18.6651 16.5846 18.986 16.4993 19.3125 16.4993C19.639 16.4993 19.9599 16.5846 20.2433 16.7466C20.5267 16.9087 20.7629 17.142 20.9285 17.4234L26.1832 26.3438L29.2488 21.1711C29.4131 20.8896 29.6487 20.6562 29.9317 20.4946C30.2147 20.3329 30.5354 20.2485 30.8613 20.25C31.1872 20.2483 31.5078 20.3323 31.791 20.4936C32.0742 20.6548 32.3101 20.8877 32.475 21.1688L38.8687 31.9594C38.9549 32.1018 39.0016 32.2645 39.0041 32.4309C39.0066 32.5973 38.9647 32.7614 38.8828 32.9063ZM16.5504 23.0625H22.0746L19.3125 18.375L16.5504 23.0625Z" fill="#F15F79"/>
</g>
<path d="M12.4068 56.068V59.896H13.9248V60.831H12.4068V65.869H11.2738V56.068H12.4068ZM5.57584 62.756C5.12851 62.1327 4.90484 61.3003 4.90484 60.259C4.90484 59.2177 5.12851 58.3853 5.57584 57.762C6.02318 57.1387 6.63551 56.827 7.41284 56.827C8.19018 56.827 8.79884 57.1387 9.23884 57.762C9.67884 58.3853 9.89884 59.2213 9.89884 60.27C9.89884 61.3113 9.67884 62.1437 9.23884 62.767C8.79884 63.383 8.19018 63.691 7.41284 63.691C6.63551 63.691 6.02318 63.3793 5.57584 62.756ZM8.43584 62.107C8.69984 61.6523 8.83184 61.0363 8.83184 60.259C8.83184 59.4817 8.69984 58.8693 8.43584 58.422C8.17918 57.9747 7.83818 57.751 7.41284 57.751C6.99484 57.751 6.65751 57.9747 6.40084 58.422C6.14418 58.8693 6.01584 59.4817 6.01584 60.259C6.01584 61.0363 6.14418 61.6523 6.40084 62.107C6.65751 62.5543 6.99484 62.778 7.41284 62.778C7.83818 62.778 8.17918 62.5543 8.43584 62.107ZM22.1334 58.004C22.1334 58.5613 21.8328 59.0087 21.2314 59.346C20.6301 59.676 19.8014 59.841 18.7454 59.841C17.6821 59.841 16.8498 59.676 16.2484 59.346C15.6471 59.0087 15.3464 58.5613 15.3464 58.004C15.3464 57.432 15.6434 56.981 16.2374 56.651C16.8388 56.321 17.6711 56.156 18.7344 56.156C19.8051 56.156 20.6374 56.321 21.2314 56.651C21.8328 56.981 22.1334 57.432 22.1334 58.004ZM19.2844 62.316H18.1624V61.282H14.3124V60.391H23.1674V61.282H19.2844V62.316ZM22.5294 65.033L21.9904 65.924C21.2938 65.8433 20.6338 65.627 20.0104 65.275C19.3944 64.923 18.9654 64.5417 18.7234 64.131C18.5034 64.5563 18.0744 64.9413 17.4364 65.286C16.7984 65.6307 16.1311 65.8433 15.4344 65.924L14.8624 65.055C15.7131 65.0257 16.4758 64.7983 17.1504 64.373C17.8251 63.9403 18.1624 63.438 18.1624 62.866V62.69H19.3064V62.866C19.3064 63.438 19.6254 63.9257 20.2634 64.329C20.9014 64.7323 21.6568 64.967 22.5294 65.033ZM20.3624 58.708C20.7658 58.532 20.9674 58.2937 20.9674 57.993C20.9674 57.6923 20.7694 57.454 20.3734 57.278C19.9848 57.102 19.4384 57.014 18.7344 57.014C18.0378 57.014 17.4914 57.102 17.0954 57.278C16.6994 57.454 16.5014 57.6923 16.5014 57.993C16.5014 58.2937 16.6994 58.532 17.0954 58.708C17.4914 58.8767 18.0378 58.961 18.7344 58.961C19.4238 58.961 19.9664 58.8767 20.3624 58.708ZM31.596 61.326H28.802V63.724H32.685V64.626H23.83V63.724H27.68V61.326H24.985V56.816H31.541V57.729H26.118V60.413H31.596V61.326ZM34.0956 62.767C33.6556 62.129 33.4356 61.2857 33.4356 60.237C33.4356 59.1883 33.6556 58.345 34.0956 57.707C34.5356 57.069 35.1442 56.75 35.9216 56.75C36.6329 56.75 37.2049 57.0213 37.6376 57.564C38.0776 58.0993 38.3342 58.8217 38.4076 59.731H40.2886V56.068H41.4216V65.869H40.2886V60.655H38.4186C38.3599 61.5937 38.1106 62.338 37.6706 62.888C37.2379 63.438 36.6549 63.713 35.9216 63.713C35.1442 63.713 34.5356 63.3977 34.0956 62.767ZM37.3406 60.248C37.3406 59.4707 37.2086 58.8473 36.9446 58.378C36.6806 57.9013 36.3396 57.663 35.9216 57.663C35.5182 57.663 35.1846 57.9013 34.9206 58.378C34.6639 58.8473 34.5356 59.4707 34.5356 60.248C34.5356 61.018 34.6639 61.6413 34.9206 62.118C35.1846 62.5873 35.5182 62.822 35.9216 62.822C36.3396 62.822 36.6806 62.5873 36.9446 62.118C37.2086 61.6413 37.3406 61.018 37.3406 60.248Z" fill="#454545"/>
<defs>
<clipPath id="clip0_2905_6452">
<rect width="30" height="30" fill="white" transform="translate(9 9)"/>
</clipPath>
</defs>
</svg>
