<svg width="92" height="15" viewBox="0 0 92 15" fill="none" xmlns="http://www.w3.org/2000/svg">
<path d="M0.539062 11.7344C0.65625 11.7344 0.792969 11.8223 0.949219 11.998C1.4375 12.5319 2.0332 12.9616 2.73633 13.2871C3.44596 13.6061 4.14583 13.7656 4.83594 13.7656C5.59766 13.7656 5.97852 13.5345 5.97852 13.0723C5.97852 12.7793 5.84505 12.4505 5.57812 12.0859C5.3112 11.7148 4.67318 10.9857 3.66406 9.89844C2.39453 8.52474 1.54818 7.50586 1.125 6.8418C0.565104 5.96289 0.285156 5.1263 0.285156 4.33203C0.285156 3.13411 0.81901 2.1543 1.88672 1.39258C2.9349 0.64388 4.22721 0.269531 5.76367 0.269531C6.83789 0.269531 7.82422 0.48763 8.72266 0.923828C9.0612 1.0931 9.35091 1.28841 9.5918 1.50977C9.83919 1.73112 9.96289 1.91667 9.96289 2.06641C9.96289 2.13802 9.92708 2.20638 9.85547 2.27148C9.79036 2.33008 9.72201 2.35938 9.65039 2.35938C9.53971 2.35938 9.37695 2.25846 9.16211 2.05664C8.81055 1.72461 8.34831 1.45117 7.77539 1.23633C7.20247 1.01497 6.65234 0.904297 6.125 0.904297C5.79948 0.904297 5.53255 0.975911 5.32422 1.11914C5.1224 1.25586 5.02148 1.4349 5.02148 1.65625C5.02148 1.92318 5.14844 2.2487 5.40234 2.63281C5.65625 3.01693 6.08594 3.52799 6.69141 4.16602C8.60547 6.20378 9.77734 7.57747 10.207 8.28711C10.6562 9.03581 10.8809 9.75846 10.8809 10.4551C10.8809 11.0475 10.7214 11.6074 10.4023 12.1348C10.0833 12.6621 9.64062 13.0951 9.07422 13.4336C7.99349 14.0781 6.67513 14.4004 5.11914 14.4004C3.68685 14.4004 2.42708 14.0293 1.33984 13.2871C0.578125 12.7663 0.197266 12.3594 0.197266 12.0664C0.197266 11.9818 0.229818 11.9069 0.294922 11.8418C0.366536 11.7702 0.447917 11.7344 0.539062 11.7344ZM17.6094 4.71289C18.2344 4.28971 18.7454 3.98047 19.1426 3.78516C20.1191 3.3099 21.0859 3.07227 22.043 3.07227C22.7331 3.07227 23.3548 3.19596 23.9082 3.44336C24.4616 3.69076 24.8717 4.0293 25.1387 4.45898C25.4577 4.97331 25.6172 5.91732 25.6172 7.29102L25.5977 8.74609L25.5781 10.6699L25.6465 14H20.6367L20.6758 7.96484L20.627 4.87891C20.5618 4.54036 20.321 4.37109 19.9043 4.37109C19.5983 4.37109 19.2533 4.46549 18.8691 4.6543C18.4915 4.83659 18.0716 5.11654 17.6094 5.49414L17.5898 7.94531L17.6289 12.1934L17.6582 14H12.6289L12.6484 9.87891V5.18164L12.6191 1.11914L12.6289 0.669922H17.6094V0.943359L17.6191 2.61328L17.6094 3.64844V4.71289ZM34.7188 7.49609V6.30469C34.7122 5.47786 34.6992 4.97005 34.6797 4.78125C34.6602 4.59245 34.6016 4.42318 34.5039 4.27344C34.2695 3.90885 33.7227 3.72656 32.8633 3.72656C31.5352 3.72656 30.5098 4.14323 29.7871 4.97656C29.4941 5.3151 29.2467 5.48438 29.0449 5.48438C28.8952 5.48438 28.765 5.43229 28.6543 5.32812C28.5436 5.22396 28.4883 5.10352 28.4883 4.9668C28.4883 4.55664 28.9733 4.13346 29.9434 3.69727C30.8678 3.2806 32.0625 3.07227 33.5273 3.07227C35.9362 3.07227 37.6354 3.43685 38.625 4.16602C39.0547 4.48503 39.3346 4.8431 39.4648 5.24023C39.5951 5.63737 39.6602 6.33724 39.6602 7.33984V11.2168C39.6341 11.9329 39.6536 12.4733 39.7188 12.8379C39.7904 13.196 39.9466 13.5833 40.1875 14H34.7188V12.9746C34.1198 13.3848 33.5241 13.694 32.9316 13.9023C32.3457 14.1107 31.7663 14.2148 31.1934 14.2148C30.2233 14.2148 29.3607 13.9316 28.6055 13.3652C27.6224 12.623 27.1309 11.6595 27.1309 10.4746C27.1309 9.42643 27.528 8.58008 28.3223 7.93555C29.2467 7.17383 30.3926 6.79297 31.7598 6.79297C32.3197 6.79297 32.8145 6.84505 33.2441 6.94922C33.6738 7.04688 34.1654 7.22917 34.7188 7.49609ZM34.7285 8.19922C33.9082 7.78906 33.2734 7.58398 32.8242 7.58398C32.4466 7.58398 32.1992 7.73372 32.082 8.0332C32.0169 8.19596 31.9844 8.66797 31.9844 9.44922V11.7832C31.9909 12.2975 32.0072 12.61 32.0332 12.7207C32.0983 13.0202 32.3197 13.1699 32.6973 13.1699C32.9967 13.1699 33.3288 13.082 33.6934 12.9062C34.0645 12.724 34.403 12.4863 34.709 12.1934L34.7285 8.19922ZM46.8574 0.669922L46.8672 1.16797L46.8477 4.60547L46.8379 6.08984L46.8184 8.79492L46.8574 13.6191V14H41.877V13.541L41.8965 11.9883L41.9062 9.17578L41.9258 5.49414L41.916 3.51172L41.8867 1.33398L41.8965 0.669922H46.8574ZM54.123 0.669922L54.1328 1.16797L54.1133 4.60547L54.1035 6.08984L54.084 8.79492L54.123 13.6191V14H49.1426V13.541L49.1621 11.9883L49.1719 9.17578L49.1914 5.49414L49.1816 3.51172L49.1523 1.33398L49.1621 0.669922H54.123ZM77.1309 7.68164C78.1855 5.16211 79.0514 2.98763 79.7285 1.1582C79.8392 0.858724 79.9271 0.673177 79.9922 0.601562C80.0573 0.523438 80.168 0.484375 80.3242 0.484375C80.4544 0.484375 80.5651 0.516927 80.6562 0.582031C80.7539 0.647135 80.8027 0.72526 80.8027 0.816406C80.8027 0.901042 80.5488 1.51953 80.041 2.67188L79.4746 3.94141L74.6211 14.9375L72.209 10.3965L70.3145 7.01758L68.8203 9.75195L66.5449 14.0195L66.0762 14.9375L64.1914 10.2891L62.5312 6.25586C61.7109 4.23112 60.9199 2.41146 60.1582 0.796875L60.0996 0.669922H66.2129L67.0527 2.81836C67.9121 4.9668 68.5924 6.57812 69.0938 7.65234L70.9004 4.33203L71.5645 3.08203L72.0137 2.24219L72.7656 0.835938C72.8828 0.608073 72.9935 0.402995 73.0977 0.220703L74.543 3.04297C75.3763 4.63802 76.2389 6.18424 77.1309 7.68164ZM84.5234 8.98047V12.0078C84.5234 12.5938 84.5592 12.9648 84.6309 13.1211C84.7676 13.4206 85.0898 13.5703 85.5977 13.5703C86.3529 13.5703 87.0983 13.3652 87.834 12.9551C88.5762 12.5384 89.2174 11.9655 89.7578 11.2363C89.9336 10.9954 90.0605 10.8424 90.1387 10.7773C90.2168 10.7122 90.3014 10.6797 90.3926 10.6797C90.5033 10.6797 90.5944 10.722 90.666 10.8066C90.7376 10.8848 90.7734 10.9857 90.7734 11.1094C90.7734 11.3828 90.5553 11.7507 90.1191 12.2129C89.5462 12.8053 88.8333 13.2871 87.9805 13.6582C87.1341 14.0293 86.3073 14.2148 85.5 14.2148C84.1133 14.2148 82.8893 13.7493 81.8281 12.8184C81.2096 12.2715 80.7344 11.5977 80.4023 10.7969C80.1094 10.0938 79.9629 9.39062 79.9629 8.6875C79.9629 8.01042 80.0931 7.33333 80.3535 6.65625C80.6139 5.97266 80.972 5.38346 81.4277 4.88867C81.9551 4.30924 82.5801 3.86003 83.3027 3.54102C84.0124 3.22852 84.7546 3.07227 85.5293 3.07227C86.7337 3.07227 87.8242 3.42708 88.8008 4.13672C90.3242 5.24349 91.0794 6.84831 91.0664 8.95117H88.791L85.8613 8.96094L84.5234 8.98047ZM87.0234 8.33594V5.48438C87.0104 4.8724 86.9974 4.50781 86.9844 4.39062C86.9714 4.26693 86.9258 4.15299 86.8477 4.04883C86.6654 3.79492 86.2943 3.66797 85.7344 3.66797C85.1615 3.66797 84.8034 3.81445 84.6602 4.10742C84.569 4.2832 84.5234 4.74219 84.5234 5.48438V8.33594L85.7148 8.375L87.0234 8.33594Z" fill="url(#paint0_linear_2385_6422)"/>
<defs>
<linearGradient id="paint0_linear_2385_6422" x1="45.5" y1="-7" x2="45.5" y2="21" gradientUnits="userSpaceOnUse">
<stop stop-color="#E31B54"/>
<stop offset="0.515625" stop-color="#EF7195"/>
<stop offset="1" stop-color="#E31C55"/>
</linearGradient>
</defs>
</svg>
