<svg width="48" height="68" viewBox="0 0 48 68" fill="none" xmlns="http://www.w3.org/2000/svg">
<rect width="48" height="48" rx="7" fill="#FFFAFB"/>
<path d="M36.9764 15.8337C36.549 14.8645 35.9881 13.9599 35.3099 13.1463L31.7149 16.7412C32.5565 17.2392 33.5479 17.4214 34.5116 17.2552C35.4753 17.0889 36.3483 16.585 36.9743 15.8337H36.9764ZM30.2568 15.283L33.8517 11.6881C33.0387 11.01 32.1348 10.449 31.1663 10.0216C30.4145 10.6477 29.9103 11.5211 29.744 12.4852C29.5777 13.4494 29.7602 14.4412 30.2588 15.283H30.2568ZM27.625 13.1875C27.625 14.524 28.0499 15.7615 28.7697 16.7721L27.1094 18.4324L19.9154 11.2364C21.2082 10.2975 22.6842 9.64108 24.2473 9.3099C25.8104 8.97873 27.4258 8.98017 28.9883 9.31413C28.1043 10.4114 27.6231 11.7785 27.625 13.1875ZM28.5676 19.8906L30.2279 18.2303C31.2385 18.9522 32.476 19.375 33.8125 19.375C35.2212 19.377 36.5881 18.8966 37.6859 18.0138C37.8509 18.7851 37.9375 19.5854 37.9375 20.4062C37.9375 22.9019 37.1311 25.2119 35.7636 27.0867L28.5676 19.8906ZM34.3983 28.6377L27.1094 21.3488L25.8616 22.5966C28.0067 25.0416 29.3228 28.1028 29.6215 31.3416C31.4365 30.8404 33.07 29.8958 34.3983 28.6377ZM15.6563 17.3785C16.1575 15.5635 17.1001 13.93 18.3582 12.6018L25.6512 19.8906L24.4034 21.1384C21.9584 18.9933 18.8952 17.6772 15.6563 17.3785ZM12.1562 19.375C11.3357 19.375 10.5488 19.7009 9.96864 20.2811C9.38845 20.8613 9.0625 21.6482 9.0625 22.4688V24.5312C9.0625 28.0868 10.4749 31.4967 12.9891 34.0109C15.5033 36.5251 18.9132 37.9375 22.4688 37.9375H24.5312C25.3518 37.9375 26.1387 37.6116 26.7189 37.0314C27.2991 36.4512 27.625 35.6643 27.625 34.8438V32.7812C27.625 29.2257 26.2126 25.8158 23.6984 23.3016C21.1842 20.7874 17.7743 19.375 14.2188 19.375H12.1562ZM16.0667 26.3792C16.1625 26.2832 16.2763 26.207 16.4016 26.155C16.5269 26.103 16.6612 26.0763 16.7969 26.0763C16.9325 26.0763 17.0668 26.103 17.1921 26.155C17.3174 26.207 17.4312 26.2832 17.527 26.3792L20.6208 29.473C20.7166 29.5689 20.7927 29.6827 20.8446 29.808C20.8965 29.9333 20.9232 30.0675 20.9232 30.2031C20.9232 30.3387 20.8965 30.473 20.8446 30.5983C20.7927 30.7235 20.7166 30.8374 20.6208 30.9333C20.5249 31.0291 20.411 31.1052 20.2858 31.1571C20.1605 31.209 20.0262 31.2357 19.8906 31.2357C19.755 31.2357 19.6208 31.209 19.4955 31.1571C19.3702 31.1052 19.2564 31.0291 19.1605 30.9333L16.0667 27.8395C15.9707 27.7437 15.8945 27.6299 15.8425 27.5046C15.7905 27.3793 15.7638 27.245 15.7638 27.1094C15.7638 26.9737 15.7905 26.8394 15.8425 26.7141C15.8945 26.5888 15.9707 26.475 16.0667 26.3792Z" fill="#F15F79"/>
<path d="M19.4086 64.571H10.5536V63.669H19.4086V64.571ZM19.1776 60.633L18.5836 61.513C17.8283 61.315 17.0986 60.963 16.3946 60.457C15.6906 59.9437 15.2176 59.401 14.9756 58.829C14.7556 59.4157 14.29 59.962 13.5786 60.468C12.8746 60.974 12.134 61.3223 11.3566 61.513L10.8066 60.589C11.3566 60.501 11.903 60.3103 12.4456 60.017C12.9883 59.7237 13.4503 59.335 13.8316 58.851C14.213 58.3597 14.4036 57.8463 14.4036 57.311V56.662H15.5806V57.311C15.5806 57.839 15.7786 58.3523 16.1746 58.851C16.578 59.3423 17.051 59.7383 17.5936 60.039C18.1363 60.3397 18.6643 60.5377 19.1776 60.633ZM28.0572 61.601H25.0432V63.724H28.9262V64.626H20.0712V63.724H23.9212V61.601H20.8962V60.688H22.4142L22.1612 58.356L23.2832 58.246L23.4812 60.688H25.5162L25.8792 58.268L26.9902 58.433L26.5832 60.688H28.0572V61.601ZM28.0682 57.762H20.8852V56.86H28.0682V57.762ZM38.1028 61.381L37.6408 62.305C36.8781 62.173 36.1448 61.898 35.4408 61.48C34.7368 61.0547 34.2601 60.589 34.0108 60.083C33.7615 60.589 33.2921 61.051 32.6028 61.469C31.9135 61.8797 31.1728 62.1547 30.3808 62.294L29.9078 61.414C30.7218 61.326 31.4845 61.0547 32.1958 60.6C32.9145 60.1453 33.3288 59.6283 33.4388 59.049H30.4138V58.147H37.6188V59.049H34.6158C34.7331 59.6283 35.1548 60.149 35.8808 60.611C36.6068 61.073 37.3475 61.3297 38.1028 61.381ZM38.4438 64.637H29.5888V63.724H38.4438V64.637ZM32.3938 57.366V56.453H35.6278V57.366H32.3938Z" fill="#454545"/>
</svg>
