<svg width="20" height="20" viewBox="0 0 20 20" fill="none" xmlns="http://www.w3.org/2000/svg">
<path d="M4.375 14.1667H7.5C8.88071 14.1667 10 15.286 10 16.6667V8.95837C10 6.49276 10 5.25996 9.31903 4.43019C9.19437 4.27829 9.05508 4.13901 8.90318 4.01434C8.07342 3.33337 6.84061 3.33337 4.375 3.33337C3.55313 3.33337 3.14219 3.33337 2.86561 3.56036C2.81497 3.60192 2.76854 3.64835 2.72699 3.69898C2.5 3.97557 2.5 4.3865 2.5 5.20837V12.2917C2.5 13.1136 2.5 13.5245 2.72699 13.8011C2.76854 13.8517 2.81497 13.8982 2.86561 13.9397C3.14219 14.1667 3.55313 14.1667 4.375 14.1667Z" fill="white" stroke="white" stroke-width="1.2"/>
<path d="M15.625 14.1667H12.5C11.1193 14.1667 10 15.286 10 16.6667V8.95837C10 6.49276 10 5.25996 10.681 4.43019C10.8056 4.27829 10.9449 4.13901 11.0968 4.01434C11.9266 3.33337 13.1594 3.33337 15.625 3.33337C16.4469 3.33337 16.8578 3.33337 17.1344 3.56036C17.185 3.60192 17.2315 3.64835 17.273 3.69898C17.5 3.97557 17.5 4.3865 17.5 5.20837V12.2917C17.5 13.1136 17.5 13.5245 17.273 13.8011C17.2315 13.8517 17.185 13.8982 17.1344 13.9397C16.8578 14.1667 16.4469 14.1667 15.625 14.1667Z" fill="white" stroke="white" stroke-width="1.2"/>
</svg>
