<svg width="24" height="24" viewBox="0 0 24 24" fill="none" xmlns="http://www.w3.org/2000/svg">
<path d="M5.21934 5.23935C5.35997 5.09889 5.55059 5.02001 5.74934 5.02001C5.94809 5.02001 6.13871 5.09889 6.27934 5.23935L11.4993 10.4593L16.7193 5.23935C16.811 5.14062 16.9276 5.06845 17.0569 5.03044C17.1861 4.99242 17.3232 4.98997 17.4537 5.02334C17.5843 5.05672 17.7034 5.12468 17.7985 5.22007C17.8937 5.31545 17.9613 5.43474 17.9943 5.56535C18.0278 5.69572 18.0254 5.83269 17.9876 5.96186C17.9498 6.09102 17.8778 6.2076 17.7793 6.29935L12.5593 11.5193L17.7793 16.7393C17.8781 16.831 17.9502 16.9476 17.9883 17.0769C18.0263 17.2061 18.0287 17.3432 17.9953 17.4737C17.962 17.6043 17.894 17.7234 17.7986 17.8185C17.7032 17.9137 17.584 17.9813 17.4533 18.0143C17.323 18.0478 17.186 18.0454 17.0568 18.0076C16.9277 17.9698 16.8111 17.8978 16.7193 17.7993L11.4993 12.5793L6.27934 17.7993C6.13708 17.9318 5.94903 18.0039 5.75471 18.0005C5.56039 17.9971 5.37494 17.9186 5.23734 17.7813C5.1001 17.6437 5.02154 17.4583 5.01818 17.264C5.01483 17.0697 5.08693 16.8816 5.21934 16.7393L10.4393 11.5193L5.21934 6.29935C5.07889 6.15872 5 5.9681 5 5.76935C5 5.57059 5.07889 5.37997 5.21934 5.23935Z" fill="#F2AAB7"/>
</svg>
