<svg width="37" height="42" viewBox="0 0 37 42" fill="none" xmlns="http://www.w3.org/2000/svg">
<path d="M4.44156 28.68H5.25156C5.25156 31.29 4.37156 33.69 1.13156 35.3L0.681563 34.66C3.54156 33.25 4.44156 31.23 4.44156 28.77V28.68ZM1.17156 28.68H4.93156V29.35H1.17156V28.68ZM4.31156 30.92V31.56L0.851563 31.9L0.721563 31.16L4.31156 30.92ZM6.71156 27.73H7.55156V36.78H6.71156V27.73ZM7.32156 31.4H8.99156V32.09H7.32156V31.4ZM13.5508 31.16H15.2508V31.85H13.5508V31.16ZM10.1308 33.93H10.7108C12.1008 33.93 12.9308 33.9 13.9308 33.7L14.0108 34.38C12.9808 34.58 12.1208 34.61 10.7108 34.61H10.1308V33.93ZM10.1308 28.83H13.4808V29.5H10.9208V34.16H10.1308V28.83ZM10.6808 31.27H13.0708V31.93H10.6808V31.27ZM16.6708 27.74H17.4708V36.78H16.6708V27.74ZM14.8508 27.95H15.6408V36.32H14.8508V27.95ZM19.86 28.64H25.68V29.33H19.86V28.64ZM19 34.83H27.17V35.52H19V34.83ZM22.17 31.6H23V35.17H22.17V31.6ZM25.37 28.64H26.19V29.54C26.19 30.66 26.19 31.9 25.86 33.73L25.03 33.62C25.37 31.89 25.37 30.62 25.37 29.54V28.64ZM34.7792 27.73H35.6092V36.79H34.7792V27.73ZM28.7192 33.92H29.4692C30.9792 33.92 32.3292 33.86 33.9292 33.6L34.0192 34.28C32.3792 34.55 31.0192 34.61 29.4692 34.61H28.7192V33.92ZM28.6992 28.58H32.8792V31.81H29.5492V34.18H28.7192V31.13H32.0392V29.26H28.6992V28.58Z" fill="#E31B54"/>
<path d="M11.2085 7.29163H25.7918" stroke="#E31B54" stroke-width="2" stroke-linecap="round"/>
<path d="M11.2085 12.5H25.7918" stroke="#E31B54" stroke-width="2" stroke-linecap="round"/>
<path d="M11.2085 17.7084H25.7918" stroke="#E31B54" stroke-width="2" stroke-linecap="round"/>
</svg>
