<svg width="53" height="53" viewBox="0 0 53 53" fill="none" xmlns="http://www.w3.org/2000/svg">
<path d="M2.15314 38.9218L16.3969 24.7609L5.38283 9.68901C4.88595 10.3515 4.47189 11.2625 4.38908 12.2562L1.65626 36.2718C1.57345 37.2656 1.73907 38.1765 2.15314 38.9218ZM49.8531 7.12183L29.2328 25.4234L45.4641 46.375C46.375 45.6296 46.9547 44.5531 47.1203 43.2281L50.7641 10.5171C51.0125 9.10933 50.5985 7.94995 49.8531 7.12183Z" fill="#C4CED6"/>
<path d="M29.2328 25.4235L49.8531 7.12192C49.1906 6.37661 48.2797 5.96255 47.2031 6.04536L7.03907 8.69536C6.45939 8.69536 5.79689 9.10942 5.38282 9.68911L16.3141 24.761L2.15314 38.9219C2.48439 39.5844 2.98126 39.9985 3.56095 40.1641L42.6485 47.2032C43.725 47.3688 44.7188 47.1204 45.5469 46.4579L29.2328 25.4235Z" fill="#DAE4EA"/>
<path d="M32.5453 18.8812C31.1375 11.5109 23.9328 14.9062 22.9391 18.3843C22.525 14.6577 16.811 12.0905 14.4094 18.6327C11.7594 25.7546 20.5375 33.2077 21.2 34.4499C22.0281 33.7046 34.1188 27.0796 32.5453 18.8812Z" fill="#F46767"/>
</svg>
