<svg width="48" height="68" viewBox="0 0 48 68" fill="none" xmlns="http://www.w3.org/2000/svg">
<rect width="48" height="48" rx="7" fill="#FFFAFB"/>
<path d="M25 16V11H15C14.7348 11 14.4804 11.1054 14.2929 11.2929C14.1054 11.4804 14 11.7348 14 12V23H34V12C34 11.7348 33.8946 11.4804 33.7071 11.2929C33.5196 11.1054 33.2652 11 33 11H31V18C31 18.2652 30.8946 18.5196 30.7071 18.7071C30.5196 18.8946 30.2652 19 30 19C29.7348 19 29.4804 18.8946 29.2929 18.7071C29.1054 18.5196 29 18.2652 29 18V11H27V16C27 16.2652 26.8946 16.5196 26.7071 16.7071C26.5196 16.8946 26.2652 17 26 17C25.7348 17 25.4804 16.8946 25.2929 16.7071C25.1054 16.5196 25 16.2652 25 16ZM34 25H14V27.75C14 28.1768 14.0841 28.5994 14.2474 28.9937C14.4107 29.388 14.6501 29.7463 14.9519 30.0481C15.2537 30.3499 15.612 30.5893 16.0063 30.7526C16.4006 30.9159 16.8232 31 17.25 31H21V36C21 36.7956 21.3161 37.5587 21.8787 38.1213C22.4413 38.6839 23.2044 39 24 39C24.7956 39 25.5587 38.6839 26.1213 38.1213C26.6839 37.5587 27 36.7956 27 36V31H30.75C31.1768 31 31.5994 30.9159 31.9937 30.7526C32.388 30.5893 32.7463 30.3499 33.0481 30.0481C33.3499 29.7463 33.5893 29.388 33.7526 28.9937C33.9159 28.5994 34 28.1768 34 27.75V25Z" fill="#F15F79"/>
<path d="M13.4728 56.585V60.083H6.96084V56.585H13.4728ZM10.8108 63.757H9.68884V61.953H5.79484V61.04H14.6498V61.953H10.8108V63.757ZM13.6158 65.583H6.93884V62.811H8.07184V64.692H13.6158V65.583ZM12.3398 59.181V57.487H8.09384V59.181H12.3398ZM21.3074 63.13L21.3954 63.999C19.7234 64.219 17.6701 64.3363 15.2354 64.351L15.0814 63.416C16.2328 63.416 17.1128 63.405 17.7214 63.383V62.503C17.1494 62.4297 16.6874 62.2463 16.3354 61.953C15.9908 61.6523 15.8184 61.2893 15.8184 60.864C15.8184 60.38 16.0384 59.984 16.4784 59.676C16.9258 59.368 17.4978 59.214 18.1944 59.214C18.8911 59.214 19.4594 59.368 19.8994 59.676C20.3468 59.984 20.5704 60.38 20.5704 60.864C20.5704 61.26 20.4128 61.6047 20.0974 61.898C19.7894 62.1913 19.3751 62.3857 18.8544 62.481V63.339C19.9251 63.2657 20.7428 63.196 21.3074 63.13ZM23.0014 56.068V60.237H24.3984V61.172H23.0014V65.869H21.8794V56.068H23.0014ZM20.9994 58.862H15.3344V57.982H20.9994V58.862ZM19.0634 61.425C19.2908 61.2783 19.4044 61.0913 19.4044 60.864C19.4044 60.6367 19.2908 60.4497 19.0634 60.303C18.8361 60.1563 18.5464 60.083 18.1944 60.083C17.8498 60.083 17.5601 60.1563 17.3254 60.303C17.0981 60.4497 16.9844 60.6367 16.9844 60.864C16.9844 61.0913 17.0981 61.2783 17.3254 61.425C17.5528 61.5643 17.8424 61.634 18.1944 61.634C18.5464 61.634 18.8361 61.5643 19.0634 61.425ZM16.7534 57.432V56.552H19.6134V57.432H16.7534ZM30.099 62.25H28.878C28.5113 63.262 27.9027 63.768 27.052 63.768C26.5827 63.768 26.183 63.6067 25.853 63.284C25.5303 62.9613 25.2957 62.5507 25.149 62.052C25.0097 61.546 24.94 60.9703 24.94 60.325C24.94 59.335 25.116 58.5173 25.468 57.872C25.8273 57.2267 26.3553 56.904 27.052 56.904C27.8733 56.904 28.4673 57.3697 28.834 58.301H30.099V56.255H31.166V65.407H30.099V62.25ZM33.091 65.869H32.013V56.068H33.091V65.869ZM27.833 62.118C28.009 61.6707 28.097 61.0767 28.097 60.336C28.097 59.5953 28.009 59.0013 27.833 58.554C27.657 58.0993 27.4003 57.872 27.063 57.872C26.7257 57.872 26.469 58.0993 26.293 58.554C26.117 59.0013 26.029 59.5953 26.029 60.336C26.029 61.0693 26.117 61.6597 26.293 62.107C26.469 62.5543 26.7257 62.778 27.063 62.778C27.4003 62.778 27.657 62.558 27.833 62.118ZM29.164 60.336C29.164 60.6513 29.1383 60.996 29.087 61.37H30.099V59.192H29.065C29.131 59.5587 29.164 59.94 29.164 60.336ZM42.3886 65.803H35.4806V63.405H40.9036V62.723H35.4476V61.832H38.1976V61.018H34.3476V60.105H43.2026V61.018H39.3196V61.832H42.0256V64.219H36.6136V64.912H42.3886V65.803ZM42.7956 58.818L42.3006 59.698C41.5672 59.5733 40.8559 59.3093 40.1666 58.906C39.4846 58.5027 39.0226 58.0553 38.7806 57.564C38.5532 58.07 38.1059 58.5173 37.4386 58.906C36.7786 59.2947 36.0562 59.5513 35.2716 59.676L34.7876 58.807C35.6822 58.719 36.4742 58.444 37.1636 57.982C37.8602 57.52 38.2086 56.959 38.2086 56.299V56.079H39.3746V56.299C39.3746 56.739 39.5652 57.1533 39.9466 57.542C40.3279 57.9307 40.7752 58.2313 41.2886 58.444C41.8092 58.6567 42.3116 58.7813 42.7956 58.818Z" fill="#454545"/>
</svg>
