<svg width="25" height="42" viewBox="0 0 25 42" fill="none" xmlns="http://www.w3.org/2000/svg">
<path d="M9.89039 34.08H16.0604V36.66H9.89039V34.08ZM15.2504 34.72H10.7104V36.03H15.2504V34.72ZM9.32039 28.48H16.5904V29.13H9.32039V28.48ZM12.9804 29.49C14.8404 29.49 15.9004 29.93 15.9004 30.77C15.9004 31.61 14.8404 32.05 12.9804 32.05C11.1104 32.05 10.0604 31.61 10.0604 30.77C10.0604 29.93 11.1104 29.49 12.9804 29.49ZM12.9804 30.07C11.6704 30.07 10.9404 30.32 10.9404 30.77C10.9404 31.22 11.6704 31.47 12.9804 31.47C14.2804 31.47 15.0104 31.22 15.0104 30.77C15.0104 30.32 14.2804 30.07 12.9804 30.07ZM12.5704 27.61H13.3904V28.9H12.5704V27.61ZM8.89039 32.74H17.0604V33.39H8.89039V32.74ZM12.5704 31.85H13.3904V33.1H12.5704V31.85Z" fill="#D9D9D9"/>
<path d="M3.125 10.3333C3.125 9.3905 3.125 8.9191 3.41789 8.62621C3.71079 8.33331 4.18219 8.33331 5.125 8.33331H19.875C20.8178 8.33331 21.2892 8.33331 21.5821 8.62621C21.875 8.9191 21.875 9.3905 21.875 10.3333V11.9791C21.875 12.5039 21.875 12.7662 21.779 12.9692C21.6801 13.1783 21.5117 13.3467 21.3026 13.4456C21.0996 13.5416 20.8372 13.5416 20.3125 13.5416V13.5416C19.7878 13.5416 19.5254 13.5416 19.3224 13.6377C19.1133 13.7366 18.9449 13.9049 18.846 14.1141C18.75 14.3171 18.75 14.5794 18.75 15.1041V18.8333C18.75 19.7761 18.75 20.2475 18.4571 20.5404C18.1642 20.8333 17.6928 20.8333 16.75 20.8333H8.25C7.30719 20.8333 6.83579 20.8333 6.54289 20.5404C6.25 20.2475 6.25 19.7761 6.25 18.8333V15.1041C6.25 14.5794 6.25 14.3171 6.15399 14.1141C6.05507 13.9049 5.8867 13.7366 5.67755 13.6377C5.47456 13.5416 5.2122 13.5416 4.6875 13.5416V13.5416C4.16279 13.5416 3.90044 13.5416 3.69744 13.4456C3.4883 13.3467 3.31993 13.1783 3.22101 12.9692C3.125 12.7662 3.125 12.5039 3.125 11.9791V10.3333Z" stroke="#D9D9D9" stroke-width="2"/>
<path d="M5.2085 13.5417H19.7918" stroke="#D9D9D9" stroke-width="2" stroke-linecap="round"/>
<path d="M12.5 7.29169L12.5 20.8334" stroke="#D9D9D9" stroke-width="2" stroke-linecap="round"/>
<path d="M12.5002 7.29167L11.585 6.37651C10.4743 5.26577 9.12017 4.42889 7.62996 3.93215V3.93215C6.4387 3.53507 5.2085 4.42174 5.2085 5.67744V5.86714C5.2085 6.71785 5.75286 7.47312 6.55992 7.74214L8.3335 8.33333" stroke="#D9D9D9" stroke-width="2" stroke-linecap="round"/>
<path d="M12.4998 7.29167L13.415 6.37651C14.5257 5.26577 15.8798 4.42889 17.37 3.93215V3.93215C18.5613 3.53507 19.7915 4.42174 19.7915 5.67744V5.86714C19.7915 6.71785 19.2471 7.47312 18.4401 7.74214L16.6665 8.33333" stroke="#D9D9D9" stroke-width="2" stroke-linecap="round"/>
</svg>
