<svg width="46" height="42" viewBox="0 0 46 42" fill="none" xmlns="http://www.w3.org/2000/svg">
<path d="M0.851953 28.64H5.00195V34.49H0.851953V28.64ZM4.19195 29.31H1.66195V33.82H4.19195V29.31ZM6.61195 27.74H7.45195V36.78H6.61195V27.74ZM7.25195 31.35H8.93195V32.05H7.25195V31.35ZM16.2612 27.73H17.0912V36.79H16.2612V27.73ZM12.3212 28.43C13.6612 28.43 14.6212 29.66 14.6212 31.58C14.6212 33.51 13.6612 34.74 12.3212 34.74C10.9912 34.74 10.0312 33.51 10.0312 31.58C10.0312 29.66 10.9912 28.43 12.3212 28.43ZM12.3212 29.18C11.4412 29.18 10.8212 30.12 10.8212 31.58C10.8212 33.05 11.4412 34.01 12.3212 34.01C13.2112 34.01 13.8212 33.05 13.8212 31.58C13.8212 30.12 13.2112 29.18 12.3212 29.18ZM25.8204 27.74H26.6204V36.78H25.8204V27.74ZM22.8404 31.18H24.3404V31.91H22.8404V31.18ZM24.0704 27.96H24.8604V36.31H24.0704V27.96ZM18.9804 28.88H23.1104V29.56H18.9804V28.88ZM18.9004 34.56L18.8004 33.86C19.9704 33.86 21.9304 33.82 23.3004 33.64L23.3604 34.25C21.9504 34.52 20.0604 34.56 18.9004 34.56ZM19.7204 29.32H20.4804V34.05H19.7204V29.32ZM21.6004 29.32H22.3604V34.05H21.6004V29.32ZM34.6596 27.73H35.4896V36.79H34.6596V27.73ZM30.7196 28.43C32.0596 28.43 33.0196 29.66 33.0196 31.58C33.0196 33.51 32.0596 34.74 30.7196 34.74C29.3896 34.74 28.4296 33.51 28.4296 31.58C28.4296 29.66 29.3896 28.43 30.7196 28.43ZM30.7196 29.18C29.8396 29.18 29.2196 30.12 29.2196 31.58C29.2196 33.05 29.8396 34.01 30.7196 34.01C31.6096 34.01 32.2196 33.05 32.2196 31.58C32.2196 30.12 31.6096 29.18 30.7196 29.18ZM39.6888 29.03H40.3588V30.5C40.3588 32.41 39.2088 34.33 37.7688 35.04L37.2888 34.38C38.5988 33.76 39.6888 32.06 39.6888 30.5V29.03ZM39.8488 29.03H40.5188V30.5C40.5188 32.03 41.6088 33.59 42.9388 34.16L42.4688 34.82C41.0088 34.14 39.8488 32.38 39.8488 30.5V29.03ZM37.5888 28.66H42.6388V29.36H37.5888V28.66ZM43.8588 27.74H44.6888V36.78H43.8588V27.74Z" fill="#D9D9D9"/>
<path d="M30.5492 21.2991C30.0744 19.9701 29.0282 18.7958 27.5729 17.9582C26.1175 17.1207 24.3343 16.6667 22.4998 16.6667C20.6654 16.6667 18.8822 17.1207 17.4268 17.9582C15.9715 18.7958 14.9252 19.9701 14.4505 21.2991" stroke="#D9D9D9" stroke-width="2" stroke-linecap="round"/>
<ellipse cx="22.5002" cy="8.33335" rx="4.16667" ry="4.16667" stroke="#D9D9D9" stroke-width="2" stroke-linecap="round"/>
</svg>
